<svg width="32" height="32" viewBox="0 0 32 32" fill="none" xmlns="http://www.w3.org/2000/svg">
<g clip-path="url(#clip0_373_7269)">
<path d="M28 32H2.00001C1.63201 32 1.33301 31.7 1.33301 31.333V0.666023C1.33301 0.298023 1.63201 -0.000976562 2.00001 -0.000976562H26.667C28.872 -0.000976562 30.667 1.79402 30.667 3.99902V29.332C30.667 30.804 29.472 31.999 28 31.999V32ZM2.66701 30.667H28C28.735 30.667 29.333 30.07 29.333 29.334V4.00102C29.333 2.53202 28.138 1.33402 26.666 1.33402H2.66601V30.667H2.66701ZM4.66701 31.333C4.29901 31.333 4.00001 31.033 4.00001 30.666V1.33302C4.00001 0.965023 4.29901 0.666023 4.66701 0.666023C5.03501 0.666023 5.33401 0.965023 5.33401 1.33302V30.666C5.33401 31.033 5.03501 31.333 4.66701 31.333ZM17.333 14.667C15.128 14.667 13.333 12.872 13.333 10.667C13.333 8.46202 15.128 6.66702 17.333 6.66702C19.538 6.66702 21.333 8.46202 21.333 10.667C21.333 12.872 19.538 14.667 17.333 14.667ZM17.333 8.00002C15.862 8.00002 14.666 9.19702 14.666 10.667C14.666 12.138 15.862 13.334 17.333 13.334C18.805 13.334 20 12.138 20 10.667C20 9.19802 18.805 8.00002 17.333 8.00002ZM24.693 25.333C24.685 25.333 24.676 25.333 24.666 25.333H9.99901C9.63101 25.333 9.33201 25.033 9.33201 24.666C9.33201 19.402 12.472 15.999 17.332 15.999C22.135 15.999 25.253 19.316 25.331 24.472C25.351 24.535 25.359 24.6 25.359 24.665C25.359 25.032 25.06 25.332 24.692 25.332L24.693 25.333ZM10.685 24H23.981C23.71 19.1 20.421 17.333 17.334 17.333C14.247 17.333 10.957 19.1 10.685 24Z" fill="black"/>
</g>
<defs>
<clipPath id="clip0_373_7269">
<rect width="32" height="32" fill="white"/>
</clipPath>
</defs>
</svg>
