<svg xmlns="http://www.w3.org/2000/svg" width="16.625" height="18.375" viewBox="0 0 16.625 18.375">
  <path id="Path_book-plus" data-name="Path / book-plus" d="M11.875,16.875a5.212,5.212,0,0,0,.709,2.625H5.75A1.744,1.744,0,0,1,4,17.75v-14A1.75,1.75,0,0,1,5.75,2h.875V8.125L8.813,6.812,11,8.125V2h5.25A1.75,1.75,0,0,1,18,3.75V11.7a5.808,5.808,0,0,0-.875-.079,5.254,5.254,0,0,0-5.25,5.25M18,16V13.375H16.25V16H13.625v1.75H16.25v2.625H18V17.75h2.625V16Z" transform="translate(-4 -2)" fill="#888"/>
</svg>
