<svg xmlns="http://www.w3.org/2000/svg" width="22.759" height="22" viewBox="0 0 22.759 22">
  <g id="Grupo_2275" data-name="Grupo 2275" transform="translate(-40 -11)">
    <path id="Path_scale" data-name="Path / scale" d="M8.46,15.06,7.05,16.47,5.68,15.1A7.941,7.941,0,0,0,4.06,19H6v2H2V20a10.009,10.009,0,0,1,8-9.8v-2L2,5V3l15.674.036a3.77,3.77,0,0,0,.3,1.661,2.747,2.747,0,0,0,1.067,1.264L14,8.2v2A10.009,10.009,0,0,1,22,20v1H18V19h1.94a7.941,7.941,0,0,0-1.62-3.9l-1.37,1.37-1.41-1.41,1.37-1.38A7.976,7.976,0,0,0,13,12.06V14H11V12.06a7.976,7.976,0,0,0-3.91,1.62l1.37,1.38M12,18a2,2,0,0,1,0,4,1.845,1.845,0,0,1-.88-.21L7.27,20l3.85-1.79A1.845,1.845,0,0,1,12,18Z" transform="translate(38 11)" fill="#145388"/>
    <g id="Grupo_2274" data-name="Grupo 2274" transform="translate(-2 2.5)">
      <g id="Grupo_2274-2" data-name="Grupo 2274" transform="translate(58.693 8.5)">
        <line id="Línea_364" data-name="Línea 364" y2="6.066" transform="translate(3.033)" fill="none" stroke="#145388" stroke-width="1.3"/>
        <line id="Línea_365" data-name="Línea 365" y2="6.066" transform="translate(6.066 3.033) rotate(90)" fill="none" stroke="#145388" stroke-width="1.3"/>
      </g>
    </g>
  </g>
</svg>
