<svg id="apps_black_24dp" xmlns="http://www.w3.org/2000/svg" width="22.226" height="22.226" viewBox="0 0 22.226 22.226">
  <path id="Trazado_129" data-name="Trazado 129" d="M0,0H22.226V22.226H0Z" fill="none"/>
  <g id="calendar_view_month_black_24dp" transform="translate(1 1.309)">
    <g id="Grupo_1419" data-name="Grupo 1419">
      <path id="Trazado_131" data-name="Trazado 131" d="M0,0H19.558V19.558H0Z" fill="none"/>
    </g>
    <g id="Grupo_1420" data-name="Grupo 1420" transform="translate(1.63 3.26)">
      <path id="Trazado_132" data-name="Trazado 132" d="M16.668,4H3.63A1.635,1.635,0,0,0,2,5.63v9.779a1.635,1.635,0,0,0,1.63,1.63H16.668a1.635,1.635,0,0,0,1.63-1.63V5.63A1.635,1.635,0,0,0,16.668,4ZM6.889,9.7H3.63V5.63h3.26Zm4.889,0H8.519V5.63h3.26Zm4.889,0h-3.26V5.63h3.26Zm-9.779,5.7H3.63V11.334h3.26Zm4.889,0H8.519V11.334h3.26Zm4.889,0h-3.26V11.334h3.26Z" transform="translate(-2 -4)" fill="#fff"/>
    </g>
  </g>
</svg>
