<svg id="MDI_earth-arrow-right" data-name="MDI / earth-arrow-right" xmlns="http://www.w3.org/2000/svg" width="59.745" height="59.745" viewBox="0 0 59.745 59.745">
  <g id="Boundary" fill="#fff" stroke="rgba(0,0,0,0)" stroke-width="1" opacity="0">
    <rect width="59.745" height="59.745" stroke="none"/>
    <rect x="0.5" y="0.5" width="58.745" height="58.745" fill="none"/>
  </g>
  <path id="Path_earth-arrow-right" data-name="Path / earth-arrow-right" d="M44.319,49.3V44.319H34.362V39.34h9.957V34.362l7.468,7.468L44.319,49.3M26.894,41.83a15.165,15.165,0,0,1,7.468-12.945,2.424,2.424,0,0,0-2.489-1.991H16.936V21.915h4.979A2.352,2.352,0,0,0,24.4,19.426V14.447h4.979a4.993,4.993,0,0,0,4.979-4.979v-1A19.9,19.9,0,0,1,46.808,26.894v.747a13.052,13.052,0,0,1,4.73,2.738,15.309,15.309,0,0,0,.249-3.485A24.894,24.894,0,1,0,26.894,51.787a15.309,15.309,0,0,0,3.485-.249,14.961,14.961,0,0,1-3.485-9.709M24.4,46.56A19.691,19.691,0,0,1,6.979,26.894a27.43,27.43,0,0,1,.5-4.481L19.426,34.362v2.489A4.993,4.993,0,0,0,24.4,41.83Z" transform="translate(2.979 2.979)" fill="#fff"/>
</svg>
