
<svg xmlns="http://www.w3.org/2000/svg" width="297.889" height="266.69" viewBox="0 0 297.889 266.69">
    <g id="mail-saber" transform="translate(-66.101 -76.055)">
        <g id="freepik--background-simple--inject-1--inject-52" transform="translate(74.157 96.086)">
        <path id="Trazado_1676" data-name="Trazado 1676" d="M314.225,141.761a62.8,62.8,0,0,0-39.009-7.69c-17.186,2.122-30.759,4.622-47.2-1.782-13.826-5.379-26.453-13.408-39.64-20.065C161.4,98.54,134.622,94.3,114.4,121.294a165.661,165.661,0,0,0-24.568,48.253c-9.117,28.07-16.61,59.153-12.5,88.469,5.2,37.164,37.069,54.61,75.195,41.147,15.419-5.442,30.3-13.408,46.746-15.687,34.411-4.78,62.773,26.816,104.038,19.134C374.434,289.39,369.182,171.85,314.225,141.761Z" transform="translate(-76.176 -101.452)" fill="#145388"/>
        <path id="Trazado_1677" data-name="Trazado 1677" d="M314.225,141.761a62.8,62.8,0,0,0-39.009-7.69c-17.186,2.122-30.759,4.622-47.2-1.782-13.826-5.379-26.453-13.408-39.64-20.065C161.4,98.54,134.622,94.3,114.4,121.294a165.661,165.661,0,0,0-24.568,48.253c-9.117,28.07-16.61,59.153-12.5,88.469,5.2,37.164,37.069,54.61,75.195,41.147,15.419-5.442,30.3-13.408,46.746-15.687,34.411-4.78,62.773,26.816,104.038,19.134C374.434,289.39,369.182,171.85,314.225,141.761Z" transform="translate(-76.176 -101.452)" fill="#fff" opacity="0.7"/>
        </g>
        <g id="freepik--Clouds--inject-1--inject-52" transform="translate(114.029 76.055)">
        <path id="Trazado_1678" data-name="Trazado 1678" d="M361.768,106.116c-5.008-2.737-7.28-.457-9.1-2.737s5.008-8.195-8.676-14.11c0,0-.907-12.745-19.576-13.2S310.779,88.812,305.77,92s-6.373-1.79-11.381,1.364-2.729,9.559-6.822,10.466-9.567-4.093-14.575-.907-5.008,5.915-7.28,5.915-6.83-1.822-9.559,0-5.923,4.1-5.923,4.1H365.38S366.776,108.845,361.768,106.116Z" transform="translate(-152.825 -76.055)" fill="#145388"/>
        <path id="Trazado_1679" data-name="Trazado 1679" d="M361.768,106.116c-5.008-2.737-7.28-.457-9.1-2.737s5.008-8.195-8.676-14.11c0,0-.907-12.745-19.576-13.2S310.779,88.812,305.77,92s-6.373-1.79-11.381,1.364-2.729,9.559-6.822,10.466-9.567-4.093-14.575-.907-5.008,5.915-7.28,5.915-6.83-1.822-9.559,0-5.923,4.1-5.923,4.1H365.38S366.776,108.845,361.768,106.116Z" transform="translate(-152.825 -76.055)" fill="#fff" opacity="0.5"/>
        <path id="Trazado_1680" data-name="Trazado 1680" d="M205.087,238.243c-3.518-1.917-5.119-.323-6.4-1.917s3.518-5.758-6.073-9.914c0,0-.639-8.952-13.755-9.275s-9.591,8.952-13.108,11.192-4.472-1.278-7.99.962-1.924,6.712-4.8,7.351-6.72-2.879-10.253-.639-3.518,4.156-5.111,4.156-4.8-1.278-6.72,0-4.156,2.879-4.156,2.879h80.913S208.605,240.16,205.087,238.243Z" transform="translate(-126.73 -105.864)" fill="#fff"/>
        <path id="Trazado_1681" data-name="Trazado 1681" d="M205.087,238.243c-3.518-1.917-5.119-.323-6.4-1.917s3.518-5.758-6.073-9.914c0,0-.639-8.952-13.755-9.275s-9.591,8.952-13.108,11.192-4.472-1.278-7.99.962-1.924,6.712-4.8,7.351-6.72-2.879-10.253-.639-3.518,4.156-5.111,4.156-4.8-1.278-6.72,0-4.156,2.879-4.156,2.879h80.913S208.605,240.16,205.087,238.243Z" transform="translate(-126.73 -105.864)" fill="#fff" opacity="0.5"/>
        </g>
        <g id="freepik--Plants--inject-1--inject-52" transform="translate(257.462 144.979)">
        <path id="Trazado_1682" data-name="Trazado 1682" d="M352.526,360.166h49.846c-.954-6.1-4.874-5.024-5.395-14.473-.26-4.732,4.149-10.647,3.762-16.894-.315-5.15-5.387-10.427-5.781-16.318-.355-5.316,3.944-11.215,3.557-16.941-.4-5.41-5.521-10.608-6-16.239-.442-5.521,3.8-11.444,3.3-17s-5.734-10.655-6.31-16.129c-.576-5.623,3.533-11.681,2.9-17.06-.663-5.718-6.057-10.655-6.791-15.924-.789-5.86,3-12.122,2.114-17.186-1.1-6.2-6.87-10.687-8.084-15.261-2.264-8.526-1.98-16.736-4.653-17.273-2.847-.568-3.5,7.485-5.663,16.484-1.088,4.519-6.728,9.1-7.658,15.309-.749,5.024,3.242,11.136,2.587,16.973-.584,5.229-5.844,10.253-6.357,15.94-.481,5.347,3.786,11.239,3.368,16.831-.41,5.434-5.521,10.616-5.86,16.137s4.046,11.294,3.746,16.744c-.308,5.584-5.316,10.86-5.576,16.231-.268,5.687,4.22,11.42,4,16.689-.245,5.844-5.182,11.192-5.363,16.3-.221,6.2,4.33,11.917,4.188,16.642-.3,10.253-4.992,8.116-5.158,16.366Z" transform="translate(-317.602 -163.444)" fill="#145388"/>
        <line id="Línea_108" data-name="Línea 108" y2="178.01" transform="translate(56.321 16.41)" fill="none" stroke="#000" stroke-miterlimit="10" stroke-width="1"/>
        <path id="Trazado_1683" data-name="Trazado 1683" d="M385.917,207.416l-8.116,7.012-6.641-8.857" transform="translate(-321.811 -172.345)" fill="none" stroke="#000" stroke-miterlimit="10" stroke-width="1"/>
        <path id="Trazado_1684" data-name="Trazado 1684" d="M385.917,246.706l-8.116,7-6.641-8.849" transform="translate(-321.811 -180.647)" fill="none" stroke="#000" stroke-miterlimit="10" stroke-width="1"/>
        <path id="Trazado_1685" data-name="Trazado 1685" d="M385.917,283.646l-8.116,7.012L371.16,281.8" transform="translate(-321.811 -188.453)" fill="none" stroke="#000" stroke-miterlimit="10" stroke-width="1"/>
        <path id="Trazado_1686" data-name="Trazado 1686" d="M385.917,327.616l-8.116,7-6.641-8.849" transform="translate(-321.811 -197.743)" fill="none" stroke="#000" stroke-miterlimit="10" stroke-width="1"/>
        <path id="Trazado_1687" data-name="Trazado 1687" d="M385.917,372.046l-8.116,7L371.16,370.2" transform="translate(-321.811 -207.131)" fill="none" stroke="#000" stroke-miterlimit="10" stroke-width="1"/>
        <path id="Trazado_1688" data-name="Trazado 1688" d="M309.56,372.18h38.481c-.741-4.732-3.762-3.88-4.164-11.168-.205-3.675,3.194-8.218,2.9-13.045-.245-3.944-4.156-8.053-4.464-12.619-.276-4.1,3.068-8.676,2.745-13.077-.308-4.18-4.275-8.187-4.63-12.532s2.934-8.841,2.547-13.124-4.432-8.226-4.858-12.446c-.442-4.346,2.729-9.015,2.24-13.179-.513-4.409-4.677-8.218-5.237-12.28-.631-4.527,2.319-9.362,1.625-13.266-.844-4.787-5.3-8.258-6.231-11.783-1.751-6.578-1.53-12.927-3.6-13.337-2.2-.442-2.705,5.773-4.369,12.73-.836,3.486-5.2,7.027-5.915,11.831-.576,3.88,2.5,8.6,2,13.1-.45,4.038-4.5,7.887-4.906,12.3-.371,4.125,2.926,8.676,2.6,12.99-.315,4.2-4.251,8.195-4.527,12.454s3.155,8.723,2.895,12.927-4.1,8.384-4.3,12.532c-.213,4.385,3.249,8.81,3.084,12.879-.189,4.511-4,8.676-4.141,12.619-.174,4.78,3.344,9.2,3.234,12.84-.237,7.887-3.857,6.27-3.983,12.619Z" transform="translate(-308.59 -175.458)" fill="#145388"/>
        <line id="Línea_109" data-name="Línea 109" y2="137.407" transform="translate(17.493 57.54)" fill="none" stroke="#000" stroke-miterlimit="10" stroke-width="1"/>
        <path id="Trazado_1689" data-name="Trazado 1689" d="M335.329,254.278l-6.262,5.41-5.127-6.838" transform="translate(-311.833 -182.335)" fill="none" stroke="#000" stroke-miterlimit="10" stroke-width="1"/>
        <path id="Trazado_1690" data-name="Trazado 1690" d="M335.329,284.6l-6.262,5.41-5.127-6.83" transform="translate(-311.833 -188.744)" fill="none" stroke="#000" stroke-miterlimit="10" stroke-width="1"/>
        <path id="Trazado_1691" data-name="Trazado 1691" d="M335.329,313.12l-6.262,5.41-5.127-6.83" transform="translate(-311.833 -194.77)" fill="none" stroke="#000" stroke-miterlimit="10" stroke-width="1"/>
        <path id="Trazado_1692" data-name="Trazado 1692" d="M335.329,347.058l-6.262,5.41-5.127-6.838" transform="translate(-311.833 -201.94)" fill="none" stroke="#000" stroke-miterlimit="10" stroke-width="1"/>
        <path id="Trazado_1693" data-name="Trazado 1693" d="M335.329,381.358l-6.262,5.4-5.127-6.83" transform="translate(-311.833 -209.187)" fill="none" stroke="#000" stroke-miterlimit="10" stroke-width="1"/>
        </g>
        <g id="freepik--Mailbox--inject-1--inject-52" transform="translate(123.706 103.529)">
        <path id="Trazado_1694" data-name="Trazado 1694" d="M266.33,369.68V210.22h8.415V369.68" transform="translate(-165.905 -131.878)" fill="#2e353a" stroke="#2e353a" stroke-linecap="round" stroke-linejoin="round" stroke-width="1"/>
        <path id="Trazado_1695" data-name="Trazado 1695" d="M261,369.68V210.22h8.415V369.68" transform="translate(-164.779 -131.878)" fill="#145388" stroke="#2e353a" stroke-linecap="round" stroke-linejoin="round" stroke-width="1"/>
        <rect id="Rectángulo_1564" data-name="Rectángulo 1564" width="8.415" height="18.929" transform="translate(96.221 78.342)" fill="#2e353a" opacity="0.3" style="mix-blend-mode: multiply;isolation: isolate"/>
        <path id="Trazado_1696" data-name="Trazado 1696" d="M289.825,131.29H227.47l27.179,66.756h62.363V158.469a27.179,27.179,0,0,0-27.187-27.179Z" transform="translate(-157.694 -115.201)" fill="#145388" stroke="#2e353a" stroke-linecap="round" stroke-linejoin="round" stroke-width="1"/>
        <path id="Trazado_1697" data-name="Trazado 1697" d="M255.9,193.159l4.732,11.689h62.386V165.27a16.9,16.9,0,0,0-.063-1.79h-67.04Z" transform="translate(-163.701 -122.002)" opacity="0.3" style="mix-blend-mode: multiply;isolation: isolate"/>
        <line id="Línea_110" data-name="Línea 110" x1="6.562" transform="translate(125.112 41.478)" fill="none" stroke="#2e353a" stroke-linecap="round" stroke-linejoin="round" stroke-width="1"/>
        <line id="Línea_111" data-name="Línea 111" x1="19.859" transform="translate(139.395 41.478)" fill="none" stroke="#2e353a" stroke-linecap="round" stroke-linejoin="round" stroke-width="1"/>
        <path id="Trazado_1698" data-name="Trazado 1698" d="M220.187,131.29h0a27.187,27.187,0,0,1,27.187,27.187v39.577H193V158.469A27.187,27.187,0,0,1,220.187,131.29Z" transform="translate(-150.41 -115.201)" fill="#2e353a" stroke="#2e353a" stroke-linecap="round" stroke-linejoin="round" stroke-width="1"/>
        <rect id="Rectángulo_1565" data-name="Rectángulo 1565" width="46.849" height="4.503" transform="translate(50.106 78.342)" fill="#145388" stroke="#2e353a" stroke-linecap="round" stroke-linejoin="round" stroke-width="1"/>
        <rect id="Rectángulo_1566" data-name="Rectángulo 1566" width="96.955" height="4.503" transform="translate(0 78.342)" fill="#145388" stroke="#2e353a" stroke-linecap="round" stroke-linejoin="round" stroke-width="1"/>
        <rect id="Rectángulo_1567" data-name="Rectángulo 1567" width="46.849" height="4.503" transform="translate(50.106 78.342)" opacity="0.3"/>
        <rect id="Rectángulo_1568" data-name="Rectángulo 1568" width="19.457" height="13.668" transform="translate(116.728)" fill="#2e353a" stroke="#2e353a" stroke-linecap="round" stroke-linejoin="round" stroke-width="1"/>
        <rect id="Rectángulo_1569" data-name="Rectángulo 1569" width="4.204" height="42.59" transform="translate(114.101)" fill="#fff" stroke="#2e353a" stroke-linecap="round" stroke-linejoin="round" stroke-width="1"/>
        <circle id="Elipse_48" data-name="Elipse 48" cx="4.732" cy="4.732" r="4.732" transform="translate(111.467 38.907)" fill="#2e353a" stroke="#2e353a" stroke-linecap="round" stroke-linejoin="round" stroke-width="1"/>
        </g>
        <g id="freepik--paper-planes--inject-1--inject-52" transform="translate(66.619 92.685)">
        <path id="Trazado_1699" data-name="Trazado 1699" d="M198.34,145.15c10.979,5.576,30.065,14.512,47.669,19.008" transform="translate(-94.451 -107.284)" fill="none" stroke="#fff" stroke-linecap="round" stroke-linejoin="round" stroke-width="1" stroke-dasharray="2 4"/>
        <path id="Trazado_1700" data-name="Trazado 1700" d="M186.66,139s3.518,1.988,9.212,4.882" transform="translate(-91.983 -105.985)" fill="none" stroke="#2e353a" stroke-linecap="round" stroke-linejoin="round" stroke-width="1" stroke-dasharray="2 4"/>
        <path id="Trazado_1701" data-name="Trazado 1701" d="M168.427,129.863l7.895-18.755L119.07,97.14Z" transform="translate(-77.701 -97.14)" fill="#fff" stroke="#2e353a" stroke-linecap="round" stroke-linejoin="round" stroke-width="1.263"/>
        <path id="Trazado_1702" data-name="Trazado 1702" d="M172.276,113.379l-3.849,16.484L119.07,97.14Z" transform="translate(-77.701 -97.14)" fill="#145388" stroke="#2e353a" stroke-linecap="round" stroke-linejoin="round" stroke-width="1.263"/>
        <path id="Trazado_1703" data-name="Trazado 1703" d="M172.276,113.379l-8.983,7.7L119.07,97.14Z" transform="translate(-77.701 -97.14)" fill="#fff" stroke="#2e353a" stroke-linecap="round" stroke-linejoin="round" stroke-width="1.263"/>
        <path id="Trazado_1704" data-name="Trazado 1704" d="M176.322,111.108l8-3.249L119.07,97.14Z" transform="translate(-77.701 -97.14)" fill="#fff" stroke="#2e353a" stroke-linecap="round" stroke-linejoin="round" stroke-width="1.263"/>
        <line id="Línea_112" data-name="Línea 112" x2="1.853" y2="1.136" transform="translate(79.605 29.805)" fill="none" stroke="#2e353a" stroke-linecap="round" stroke-linejoin="round" stroke-width="1"/>
        <line id="Línea_113" data-name="Línea 113" x2="6.207" y2="3.802" transform="translate(69.494 23.606)" fill="none" stroke="#2e353a" stroke-linecap="round" stroke-linejoin="round" stroke-width="1"/>
        <path id="Trazado_1705" data-name="Trazado 1705" d="M145.89,178.7V158.36l58.19,9.354Z" transform="translate(-83.369 -110.076)" fill="#fff" stroke="#2e353a" stroke-linecap="round" stroke-linejoin="round" stroke-width="1.263"/>
        <path id="Trazado_1706" data-name="Trazado 1706" d="M148.737,163l-2.847,16.681,58.19-10.987Z" transform="translate(-83.369 -111.056)" fill="#145388" stroke="#2e353a" stroke-linecap="round" stroke-linejoin="round" stroke-width="1.263"/>
        <path id="Trazado_1707" data-name="Trazado 1707" d="M149.5,163l5.292,10.576,50.051-4.882Z" transform="translate(-84.131 -111.056)" fill="#fff" stroke="#2e353a" stroke-linecap="round" stroke-linejoin="round" stroke-width="1.263"/>
        <path id="Trazado_1708" data-name="Trazado 1708" d="M144.255,156.725l-6.1-6.1,64.295,15.459Z" transform="translate(-81.733 -108.44)" fill="#fff" stroke="#2e353a" stroke-linecap="round" stroke-linejoin="round" stroke-width="1.263"/>
        <line id="Línea_114" data-name="Línea 114" y1="1.025" x2="5.048" transform="translate(83.359 67.221)" fill="none" stroke="#2e353a" stroke-linecap="round" stroke-linejoin="round" stroke-width="1"/>
        <line id="Línea_115" data-name="Línea 115" y1="2.579" x2="12.69" transform="translate(65.629 69.272)" fill="none" stroke="#2e353a" stroke-linecap="round" stroke-linejoin="round" stroke-width="1"/>
        <path id="Trazado_1709" data-name="Trazado 1709" d="M122.128,182.56s-45.745,7.887-54.42,48.9,37.069,43.379,44.956,23.661-26.816-27.6-34.7-8.676,15.774,51.266,48.111,52.843C152.943,300.6,228.28,269.23,275.136,261.3c0,0,34.7-9.606,88.335-7.5" transform="translate(-66.619 -115.189)" fill="none" stroke="#2e353a" stroke-linecap="round" stroke-linejoin="round" stroke-width="1" stroke-dasharray="2 4"/>
        </g>
        <g id="freepik--Fence--inject-1--inject-52" transform="translate(71.123 240.402)">
        <line id="Línea_116" data-name="Línea 116" x2="13.148" transform="translate(276.834 48.212)" fill="#fff" stroke="#2e353a" stroke-linecap="round" stroke-linejoin="round" stroke-width="1"/>
        <line id="Línea_117" data-name="Línea 117" x2="13.148" transform="translate(276.834 67.661)" fill="#fff" stroke="#2e353a" stroke-linecap="round" stroke-linejoin="round" stroke-width="1"/>
        <path id="Trazado_1710" data-name="Trazado 1710" d="M72.33,364.628H347.587V346.22H72.33" transform="translate(-72.33 -297.488)" fill="#fff" stroke="#2e353a" stroke-linecap="round" stroke-linejoin="round" stroke-width="1"/>
        <path id="Trazado_1711" data-name="Trazado 1711" d="M96.59,385.487V292.878a1.68,1.68,0,0,1,.521-1.215l7.193-6.775a1.68,1.68,0,0,1,2.366.071l6.31,6.712a1.711,1.711,0,0,1,.45,1.144v92.672" transform="translate(-77.456 -284.433)" fill="#2e353a" stroke="#2e353a" stroke-linecap="round" stroke-linejoin="round" stroke-width="1"/>
        <path id="Trazado_1712" data-name="Trazado 1712" d="M94,386.275v-93.4a1.656,1.656,0,0,1,.528-1.215l7.193-6.775a1.672,1.672,0,0,1,2.366.071l6.31,6.712a1.672,1.672,0,0,1,.45,1.144v93.461" transform="translate(-76.909 -284.432)" fill="#fff" stroke="#2e353a" stroke-linecap="round" stroke-linejoin="round" stroke-width="1"/>
        <path id="Trazado_1713" data-name="Trazado 1713" d="M173.49,385.487V292.877a1.68,1.68,0,0,1,.521-1.215l7.2-6.775a1.672,1.672,0,0,1,2.366.071l6.31,6.712a1.672,1.672,0,0,1,.45,1.144v92.672" transform="translate(-93.705 -284.432)" fill="#2e353a" stroke="#2e353a" stroke-linecap="round" stroke-linejoin="round" stroke-width="1"/>
        <path id="Trazado_1714" data-name="Trazado 1714" d="M171.33,386.276v-93.4a1.656,1.656,0,0,1,.528-1.215l7.193-6.775a1.68,1.68,0,0,1,2.366.071l6.31,6.712a1.68,1.68,0,0,1,.457,1.144v93.461" transform="translate(-93.249 -284.433)" fill="#fff" stroke="#2e353a" stroke-linecap="round" stroke-linejoin="round" stroke-width="1"/>
        <path id="Trazado_1715" data-name="Trazado 1715" d="M250.82,385.487V292.878a1.656,1.656,0,0,1,.528-1.215l7.193-6.775a1.68,1.68,0,0,1,2.366.071l6.31,6.712a1.68,1.68,0,0,1,.457,1.144v93.461" transform="translate(-110.045 -284.433)" fill="#2e353a" stroke="#2e353a" stroke-linecap="round" stroke-linejoin="round" stroke-width="1"/>
        <path id="Trazado_1716" data-name="Trazado 1716" d="M248.67,386.275v-93.4a1.68,1.68,0,0,1,.521-1.215l7.2-6.775a1.672,1.672,0,0,1,2.366.071l6.31,6.712a1.672,1.672,0,0,1,.45,1.144v93.461" transform="translate(-109.591 -284.432)" fill="#fff" stroke="#2e353a" stroke-linecap="round" stroke-linejoin="round" stroke-width="1"/>
        <path id="Trazado_1717" data-name="Trazado 1717" d="M328.16,385.487V292.878a1.68,1.68,0,0,1,.521-1.215l7.193-6.775a1.68,1.68,0,0,1,2.366.071l6.31,6.712a1.712,1.712,0,0,1,.45,1.144v92.672" transform="translate(-126.387 -284.433)" fill="#2e353a" stroke="#2e353a" stroke-linecap="round" stroke-linejoin="round" stroke-width="1"/>
        <path id="Trazado_1718" data-name="Trazado 1718" d="M326,386.275v-93.4a1.656,1.656,0,0,1,.528-1.215l7.193-6.775a1.672,1.672,0,0,1,2.366.071l6.31,6.712a1.672,1.672,0,0,1,.45,1.144v93.461" transform="translate(-125.93 -284.432)" fill="#fff" stroke="#2e353a" stroke-linecap="round" stroke-linejoin="round" stroke-width="1"/>
        <path id="Trazado_1719" data-name="Trazado 1719" d="M405.49,385.487V292.877a1.68,1.68,0,0,1,.521-1.215l7.2-6.775a1.672,1.672,0,0,1,2.366.071l6.31,6.712a1.672,1.672,0,0,1,.45,1.144v92.672" transform="translate(-142.726 -284.432)" fill="#2e353a" stroke="#2e353a" stroke-linecap="round" stroke-linejoin="round" stroke-width="1"/>
        <path id="Trazado_1720" data-name="Trazado 1720" d="M403.33,386.276v-93.4a1.656,1.656,0,0,1,.528-1.215l7.193-6.775a1.68,1.68,0,0,1,2.366.071l6.31,6.712a1.68,1.68,0,0,1,.457,1.144v93.461" transform="translate(-142.27 -284.433)" fill="#fff" stroke="#2e353a" stroke-linecap="round" stroke-linejoin="round" stroke-width="1"/>
        <line id="Línea_118" data-name="Línea 118" y2="6.751" transform="translate(27.171 0.527)" fill="none" stroke="#2e353a" stroke-linecap="round" stroke-linejoin="round" stroke-width="1"/>
        <line id="Línea_119" data-name="Línea 119" y2="15.979" transform="translate(29.876 4.013)" fill="none" stroke="#2e353a" stroke-linecap="round" stroke-linejoin="round" stroke-width="1"/>
        <line id="Línea_120" data-name="Línea 120" y2="20.214" transform="translate(81.402 5.322)" fill="none" stroke="#2e353a" stroke-linecap="round" stroke-linejoin="round" stroke-width="1"/>
        <line id="Línea_121" data-name="Línea 121" y2="8.802" transform="translate(84.012 2.712)" fill="none" stroke="#2e353a" stroke-linecap="round" stroke-linejoin="round" stroke-width="1"/>
        <line id="Línea_122" data-name="Línea 122" y2="19.867" transform="translate(146.801 0.456)" fill="none" stroke="#2e353a" stroke-linecap="round" stroke-linejoin="round" stroke-width="1"/>
        <line id="Línea_123" data-name="Línea 123" y2="29.355" transform="translate(150.547 2.057)" fill="none" stroke="#2e353a" stroke-linecap="round" stroke-linejoin="round" stroke-width="1"/>
        <line id="Línea_124" data-name="Línea 124" y2="22.17" transform="translate(203.051 5.322)" fill="none" stroke="#2e353a" stroke-linecap="round" stroke-linejoin="round" stroke-width="1"/>
        <line id="Línea_125" data-name="Línea 125" y2="5.545" transform="translate(211.53 2.712)" fill="none" stroke="#2e353a" stroke-linecap="round" stroke-linejoin="round" stroke-width="1"/>
        <line id="Línea_126" data-name="Línea 126" y2="11.744" transform="translate(266.644 2.38)" fill="none" stroke="#2e353a" stroke-linecap="round" stroke-linejoin="round" stroke-width="1"/>
        <line id="Línea_127" data-name="Línea 127" y2="33.914" transform="translate(273.821 3.69)" fill="none" stroke="#2e353a" stroke-linecap="round" stroke-linejoin="round" stroke-width="1"/>
        <line id="Línea_128" data-name="Línea 128" x1="7.177" transform="translate(253.599 53.26)" fill="none" stroke="#2e353a" stroke-linecap="round" stroke-linejoin="round" stroke-width="1"/>
        <line id="Línea_129" data-name="Línea 129" x1="25.112" transform="translate(235.664 58.804)" fill="none" stroke="#2e353a" stroke-linecap="round" stroke-linejoin="round" stroke-width="1"/>
        <line id="Línea_130" data-name="Línea 130" x1="11.413" transform="translate(155.761 58.804)" fill="none" stroke="#2e353a" stroke-linecap="round" stroke-linejoin="round" stroke-width="1"/>
        <line id="Línea_131" data-name="Línea 131" x1="11.413" transform="translate(95.756 58.804)" fill="none" stroke="#2e353a" stroke-linecap="round" stroke-linejoin="round" stroke-width="1"/>
        <line id="Línea_132" data-name="Línea 132" x1="11.413" transform="translate(5.418 55.87)" fill="none" stroke="#2e353a" stroke-linecap="round" stroke-linejoin="round" stroke-width="1"/>
        <line id="Línea_133" data-name="Línea 133" x1="4.567" transform="translate(12.264 61.083)" fill="none" stroke="#2e353a" stroke-linecap="round" stroke-linejoin="round" stroke-width="1"/>
        <line id="Línea_134" data-name="Línea 134" x1="5.545" transform="translate(155.761 55.87)" fill="none" stroke="#2e353a" stroke-linecap="round" stroke-linejoin="round" stroke-width="1"/>
        <line id="Línea_135" data-name="Línea 135" x1="5.545" transform="translate(95.102 62.061)" fill="none" stroke="#2e353a" stroke-linecap="round" stroke-linejoin="round" stroke-width="1"/>
        <line id="Línea_136" data-name="Línea 136" x1="5.545" transform="translate(71.945 62.061)" fill="none" stroke="#2e353a" stroke-linecap="round" stroke-linejoin="round" stroke-width="1"/>
        <line id="Línea_137" data-name="Línea 137" x1="4.89" transform="translate(278.056 58.804)" fill="none" stroke="#2e353a" stroke-linecap="round" stroke-linejoin="round" stroke-width="1"/>
        <line id="Línea_138" data-name="Línea 138" x1="2.934" transform="translate(286.535 58.804)" fill="none" stroke="#2e353a" stroke-linecap="round" stroke-linejoin="round" stroke-width="1"/>
        <path id="Trazado_1721" data-name="Trazado 1721" d="M113.652,316s-1.972,16.949-4.338,34.293,1.972,35.089,3.155,36.667" transform="translate(-79.998 -291.102)" fill="none" stroke="#2e353a" stroke-linecap="round" stroke-linejoin="round" stroke-width="1"/>
        <path id="Trazado_1722" data-name="Trazado 1722" d="M105.11,358.021c.379-3.384.694-5.521.694-5.521" transform="translate(-79.256 -298.815)" fill="none" stroke="#2e353a" stroke-linecap="round" stroke-linejoin="round" stroke-width="1"/>
        <path id="Trazado_1723" data-name="Trazado 1723" d="M110.588,395.652s-7.1-1.577-7.1-14.2c0-5.182.331-10.49.726-14.985" transform="translate(-78.914 -301.766)" fill="none" stroke="#2e353a" stroke-linecap="round" stroke-linejoin="round" stroke-width="1"/>
        <path id="Trazado_1724" data-name="Trazado 1724" d="M187.2,290.5s1.577,1.183-1.183,14.591-2.366,33.125,1.183,44.167" transform="translate(-95.969 -285.714)" fill="none" stroke="#2e353a" stroke-linecap="round" stroke-linejoin="round" stroke-width="1"/>
        <path id="Trazado_1725" data-name="Trazado 1725" d="M192.42,322s-3.943,11.831-1.183,28.393" transform="translate(-97.248 -292.37)" fill="none" stroke="#2e353a" stroke-linecap="round" stroke-linejoin="round" stroke-width="1"/>
        <path id="Trazado_1726" data-name="Trazado 1726" d="M249.894,331.49s1.972,11.436,3.944,23.259.394,28.393-1.183,32.723-3.155,7.887-3.155,7.887" transform="translate(-109.766 -294.375)" fill="none" stroke="#2e353a" stroke-linecap="round" stroke-linejoin="round" stroke-width="1"/>
        <path id="Trazado_1727" data-name="Trazado 1727" d="M258.364,404.877c-1.759,5.395-3.944-.907-3.944-.907" transform="translate(-110.805 -309.69)" fill="none" stroke="#2e353a" stroke-linecap="round" stroke-linejoin="round" stroke-width="1"/>
        <path id="Trazado_1728" data-name="Trazado 1728" d="M259.33,354s3.715,19.173,1.617,33.607" transform="translate(-111.843 -299.132)" fill="none" stroke="#2e353a" stroke-linecap="round" stroke-linejoin="round" stroke-width="1"/>
        <path id="Trazado_1729" data-name="Trazado 1729" d="M249,362s3.943,8.281.394,16.168" transform="translate(-109.66 -300.822)" fill="none" stroke="#2e353a" stroke-linecap="round" stroke-linejoin="round" stroke-width="1"/>
        <path id="Trazado_1730" data-name="Trazado 1730" d="M342.3,363.48a53.809,53.809,0,0,0,2.074,7.1" transform="translate(-129.374 -301.135)" fill="none" stroke="#2e353a" stroke-linecap="round" stroke-linejoin="round" stroke-width="1"/>
        <path id="Trazado_1731" data-name="Trazado 1731" d="M345.138,311.5a109.45,109.45,0,0,0-4.732,24.45,56.382,56.382,0,0,0,.7,12.564" transform="translate(-128.956 -290.151)" fill="none" stroke="#2e353a" stroke-linecap="round" stroke-linejoin="round" stroke-width="1"/>
        <path id="Trazado_1732" data-name="Trazado 1732" d="M336.93,357.48s3.549,13.408,5.521,18.14,1.183,16.16-1.183,21.681" transform="translate(-128.24 -299.867)" fill="none" stroke="#2e353a" stroke-linecap="round" stroke-linejoin="round" stroke-width="1"/>
        <path id="Trazado_1733" data-name="Trazado 1733" d="M404.41,319s7.887,14.2.394,37.455" transform="translate(-142.498 -291.736)" fill="none" stroke="#2e353a" stroke-linecap="round" stroke-linejoin="round" stroke-width="1"/>
        <path id="Trazado_1734" data-name="Trazado 1734" d="M411.658,349.74c.047,4.432-.347,10.048-2.122,14.78-3.549,9.464-5.127,12.619-5.127,12.619" transform="translate(-142.498 -298.231)" fill="none" stroke="#2e353a" stroke-linecap="round" stroke-linejoin="round" stroke-width="1"/>
        <path id="Trazado_1735" data-name="Trazado 1735" d="M412.91,340s.26,1.7.418,4.306" transform="translate(-144.294 -296.173)" fill="none" stroke="#2e353a" stroke-linecap="round" stroke-linejoin="round" stroke-width="1"/>
        </g>
    </g>
</svg>