<svg width="32" height="32" viewBox="0 0 32 32" fill="none" xmlns="http://www.w3.org/2000/svg">
<g clip-path="url(#clip0_373_7277)">
<path d="M31.333 14C30.966 14 30.666 13.701 30.666 13.333V9.333C30.666 7.128 28.871 5.333 26.666 5.333H15.499C15.131 5.333 14.832 5.034 14.832 4.666C14.832 3.625 13.18 1.333 11.415 1.333H4.74805C2.99305 1.333 1.33205 3.156 1.33205 5.084V13.335C1.33205 13.703 1.03305 14.002 0.665047 14.002C0.297047 14.002 -0.00195312 13.703 -0.00195312 13.335V5.084C-0.00195312 2.424 2.26105 0 4.74905 0H11.416C13.647 0 15.636 2.26 16.076 4H26.665C29.608 4 31.998 6.392 31.998 9.333V13.333C31.998 13.701 31.699 14 31.331 14H31.333ZM4.69505 32C2.08305 32 4.68751e-05 29.919 4.68751e-05 27.361V13.333C4.68751e-05 12.965 0.299047 12.666 0.667047 12.666C1.03505 12.666 1.33405 12.965 1.33405 13.333V27.361C1.33405 29.184 2.81705 30.666 4.63905 30.666C6.51905 30.666 8.00005 29.183 8.00005 27.361V12.666C8.00005 10.093 10.093 7.999 12.667 7.999H27.334C29.909 7.999 32.001 10.092 32.001 12.666V18.666C32.001 19.033 31.702 19.333 31.334 19.333C30.967 19.333 30.667 19.033 30.667 18.666V12.666C30.667 10.829 29.172 9.333 27.334 9.333H12.667C10.831 9.333 9.33405 10.829 9.33405 12.666V27.361C9.33405 29.918 7.25305 32 4.69505 32ZM18.667 32H5.33405C4.96605 32 4.66705 31.7 4.66705 31.333C4.66705 30.966 4.96705 30.666 5.33405 30.666H18.667C19.035 30.666 19.334 30.966 19.334 31.333C19.334 31.7 19.035 32 18.667 32ZM23.891 27.573C22.823 27.573 21.818 27.157 21.063 26.402C20.307 25.65 19.891 24.643 19.891 23.574C19.891 22.505 20.307 21.501 21.063 20.745C22.574 19.234 25.207 19.234 26.719 20.745C27.474 21.501 27.891 22.505 27.891 23.574C27.891 24.643 27.474 25.649 26.719 26.402C25.966 27.157 24.962 27.573 23.891 27.573ZM23.891 20.908C23.18 20.908 22.508 21.185 22.006 21.688C21.503 22.192 21.225 22.861 21.225 23.575C21.225 24.287 21.504 24.958 22.006 25.46C23.014 26.467 24.771 26.467 25.777 25.46C26.28 24.957 26.558 24.287 26.558 23.575C26.558 22.863 26.279 22.192 25.777 21.688C25.275 21.184 24.605 20.908 23.892 20.908H23.891ZM30.468 30.816C30.297 30.816 30.125 30.749 29.996 30.621L26.225 26.852C25.966 26.592 25.966 26.168 26.225 25.909C26.485 25.649 26.909 25.649 27.168 25.909L30.939 29.678C31.199 29.938 31.199 30.362 30.939 30.621C30.807 30.75 30.639 30.816 30.468 30.816Z" fill="black"/>
</g>
<defs>
<clipPath id="clip0_373_7277">
<rect width="32" height="32" fill="white"/>
</clipPath>
</defs>
</svg>
