<?xml version="1.0" encoding="utf-8"?>
<!-- Generator: Adobe Illustrator 22.1.0, SVG Export Plug-In . SVG Version: 6.00 Build 0)  -->
<svg version="1.1" id="Layer_1" xmlns="http://www.w3.org/2000/svg" xmlns:xlink="http://www.w3.org/1999/xlink" x="0px" y="0px"
	 viewBox="0 0 50 50" style="enable-background:new 0 0 50 50;" xml:space="preserve">
<style type="text/css">
	.st0{fill:#FFFFFF;}
</style>
<g>
	<path class="st0" d="M38.8,6.1c-1.7,0-3.1,1.4-3.1,3.1v25.1c-0.1,1-0.8,8.5-10.2,8.5h-1c-9.2,0-10.1-7.1-10.2-8.5V9.2
		c0-1.7-1.4-3.1-3.1-3.1S8.1,7.5,8.1,9.2v25.2v0.1c0.2,4.8,3.9,13.8,16.4,13.8h1c12.6,0,16.2-9,16.4-13.8V9.3
		C41.9,7.5,40.6,6.1,38.8,6.1z"/>
	<path class="st0" d="M30.1,10.8h-1c-1.5,0-2.8,1.3-2.8,2.8v20.6c0,1.5,1.3,2.8,2.8,2.8h1c1.5,0,2.8-1.3,2.8-2.8V13.6
		C32.9,12.1,31.6,10.8,30.1,10.8z"/>
	<path class="st0" d="M19.9,37h1c1.5,0,2.8-1.3,2.8-2.8V21.9c0-1.5-1.3-2.8-2.8-2.8h-1c-1.5,0-2.8,1.3-2.8,2.8v12.3
		C17.1,35.7,18.4,37,19.9,37z"/>
	<circle class="st0" cx="20.4" cy="14.5" r="2.8"/>
	<path class="st0" d="M31.9,7.3c1.3-1.3,1.3-3.4,0-4.7c-1.3-1.3-3.4-1.3-4.7,0C26,3.9,26,6,27.2,7.3C28.5,8.5,30.6,8.5,31.9,7.3z"/>
</g>
</svg>
