<svg id="Grupo_9971" data-name="Grupo 9971" xmlns="http://www.w3.org/2000/svg" width="32.229" height="32.229" viewBox="0 0 32.229 32.229">
  <g id="Boundary" fill="#145388" stroke="rgba(0,0,0,0)" stroke-width="1" opacity="0">
    <rect width="32.229" height="32.229" stroke="none"/>
    <rect x="0.5" y="0.5" width="31.229" height="31.229" fill="none"/>
  </g>
  <path id="Path_table-eye-off" data-name="Path / table-eye-off" d="M15.734,11.224,7.945,3.435H23.791a2.694,2.694,0,0,1,2.686,2.686V16.313a10.376,10.376,0,0,0-6.2-.551l-1.585-1.585h5.1V8.807H15.734v2.417m6.835,6.835,7.01,7.01a8.282,8.282,0,0,0,.927-1.652,8.64,8.64,0,0,0-7.936-5.358M29.31,28.225,27.6,29.93l-1.8-1.826a8.873,8.873,0,0,1-3.357.685,8.655,8.655,0,0,1-8.057-5.371,8.519,8.519,0,0,1,2.968-3.733L15.64,17.965a12.134,12.134,0,0,0-2.592,2.887V16.864H4.991v5.371h7.278a11.812,11.812,0,0,0-.564,1.343,11.811,11.811,0,0,0,.564,1.343H4.991a2.694,2.694,0,0,1-2.686-2.686V6.121a2.581,2.581,0,0,1,.3-1.2L1.11,3.435,2.829,1.73,29.31,28.225M11.853,14.178,6.481,8.807H4.991v5.371h6.862m12.18,12.18-4.525-4.525a3.17,3.17,0,0,0-.416,1.585,3.358,3.358,0,0,0,3.357,3.357A3.17,3.17,0,0,0,24.033,26.358Z" transform="translate(0.233 0.956)" fill="#145388"/>
</svg>
