<svg xmlns="http://www.w3.org/2000/svg" width="19.365" height="19.365" viewBox="0 0 19.365 19.365">
  <g id="porcentaje" transform="translate(-0.012)">
    <g id="Grupo_1414" data-name="Grupo 1414" transform="translate(11.365 11.356)">
      <g id="Grupo_1413" data-name="Grupo 1413">
        <path id="Trazado_126" data-name="Trazado 126" d="M301.3,300.244a1.124,1.124,0,1,0,1.124,1.124A1.125,1.125,0,0,0,301.3,300.244Z" transform="translate(-300.18 -300.244)" fill="#fff"/>
      </g>
    </g>
    <g id="Grupo_1416" data-name="Grupo 1416" transform="translate(5.762 5.754)">
      <g id="Grupo_1415" data-name="Grupo 1415">
        <path id="Trazado_127" data-name="Trazado 127" d="M153.164,152.116a1.124,1.124,0,1,0,1.124,1.124A1.126,1.126,0,0,0,153.164,152.116Z" transform="translate(-152.04 -152.116)" fill="#fff"/>
      </g>
    </g>
    <g id="Grupo_1418" data-name="Grupo 1418" transform="translate(0.012)">
      <g id="Grupo_1417" data-name="Grupo 1417" transform="translate(0)">
        <path id="Trazado_128" data-name="Trazado 128" d="M9.695,0a9.683,9.683,0,1,0,9.682,9.683A9.693,9.693,0,0,0,9.695,0ZM6.887,4.542A2.336,2.336,0,1,1,4.551,6.878,2.338,2.338,0,0,1,6.887,4.542Zm-.71,9.515A.606.606,0,0,1,5.32,13.2l7.892-7.892a.606.606,0,0,1,.856.856Zm6.313.759a2.336,2.336,0,1,1,2.335-2.336A2.338,2.338,0,0,1,12.49,14.816Z" transform="translate(-0.012)" fill="#fff"/>
      </g>
    </g>
  </g>
</svg>
