<svg id="Grupo_9970" data-name="Grupo 9970" xmlns="http://www.w3.org/2000/svg" width="32.229" height="32.229" viewBox="0 0 32.229 32.229">
  <g id="Boundary" fill="#145388" stroke="rgba(0,0,0,0)" stroke-width="1" opacity="0">
    <rect width="32.229" height="32.229" stroke="none"/>
    <rect x="0.5" y="0.5" width="31.229" height="31.229" fill="none"/>
  </g>
  <path id="Path_table-eye" data-name="Path / table-eye" d="M22.143,21.639A1.343,1.343,0,1,1,20.8,22.982a1.33,1.33,0,0,1,1.343-1.343m0-4.029A8.655,8.655,0,0,1,30.2,22.982a8.729,8.729,0,0,1-16.114,0,8.655,8.655,0,0,1,8.057-5.371m0,2.014A3.357,3.357,0,1,0,25.5,22.982a3.358,3.358,0,0,0-3.357-3.357M23.486,3H4.686A2.694,2.694,0,0,0,2,5.686V21.8a2.694,2.694,0,0,0,2.686,2.686h7.278a11.811,11.811,0,0,1-.564-1.343,11.812,11.812,0,0,1,.564-1.343H4.686V16.429h8.057v3.988a12.1,12.1,0,0,1,2.686-2.968V16.429h1.544a10.63,10.63,0,0,1,9.2-.551V5.686A2.694,2.694,0,0,0,23.486,3M12.743,13.743H4.686V8.371h8.057v5.371m10.743,0H15.429V8.371h8.057Z" transform="translate(0.014 0.438)" fill="#145388"/>
</svg>
