<?xml version="1.0" encoding="utf-8"?>
<!-- Generator: Adobe Illustrator 22.1.0, SVG Export Plug-In . SVG Version: 6.00 Build 0)  -->
<svg version="1.1" id="Layer_1" xmlns="http://www.w3.org/2000/svg" xmlns:xlink="http://www.w3.org/1999/xlink" x="0px" y="0px"
	 viewBox="0 0 1920 1080" style="enable-background:new 0 0 1920 1080;" xml:space="preserve">
<style type="text/css">
	.st0{fill:#A45494;}
	.st1{fill:#03A0DE;}
	.st2{fill:#FFCB31;}
</style>
<g>
	<g>
		<path d="M349.2,531.5c-15.7-8.4-35.8-15.6-60.5-21.6c-20.8-5.1-37.2-9.3-49-12.8c-11.9-3.5-21.3-7.9-28.3-13.3
			c-7-5.3-10.5-12.2-10.5-20.6c0-9.1,4.8-16.8,14.3-22.9c9.5-6.1,21.5-9.2,35.9-9.2c14,0,25.1,2.3,33.3,7
			c8.2,4.7,15.3,10.9,21.3,18.7c7.4,9.3,14,16.3,19.7,21c5.7,4.7,12.7,7,20.9,7c11.3,0,20-2.9,26.1-8.8c6.1-5.8,9.2-13.3,9.2-22.5
			c0-8.4-2.9-16.9-8.6-25.7c-5.7-8.8-14.1-16.7-25.1-23.9c-11-7.2-24.7-12.9-41.1-17.2c-16.4-4.3-35-6.4-55.6-6.4
			c-26.3,0-48.7,4.2-67.3,12.7c-18.6,8.5-32.6,19.8-42.2,34c-9.5,14.2-14.3,29.3-14.3,45.2c0,17.9,5.2,33,15.5,45.2
			c10.3,12.3,24.1,22.1,41.3,29.6c17.2,7.5,39.5,14.6,67,21.4c24.3,5.8,41.8,12,52.4,18.4c10.6,6.4,15.9,16.6,15.9,30.6
			c0,9.1-5.1,17.3-15.3,24.4c-10.2,7.1-23.3,10.7-39.2,10.7c-19.7,0-35.2-3.5-46.5-10.5c-11.4-7-21.2-17.6-29.3-31.8
			c-4.1-7.4-8.4-13.1-12.8-17.2c-4.5-4.1-10.9-6.1-19.3-6.1c-9.5,0-17.4,3.1-23.6,9.3c-6.2,6.2-9.3,13.7-9.3,22.5
			c0,13.2,4.9,26.4,14.6,39.5c9.7,13.1,24.8,24.1,45.2,32.8c20.4,8.8,44.9,13.1,73.5,13.1c30,0,55.4-4,76.3-12.1
			c20.9-8.1,36.7-19.9,47.4-35.6c10.7-15.7,16-34.5,16-56.5c0-14.6-4-27.6-12.1-39C376.7,549.7,364.8,539.8,349.2,531.5z"/>
		<path d="M742.3,593.6c0.2-15.9,0.3-30.4,0.4-43.5c0.1-13,0.1-28.9,0.1-47.6c0-29.6-4.1-53.3-12.4-71.2
			c-8.3-17.9-22.4-31-42.5-39.2c-20-8.3-47.6-12.4-82.6-12.4c-31.3,0-57.5,4.3-78.5,12.8c-21,8.6-36.5,19.5-46.4,32.7
			c-9.9,13.2-14.9,26.8-14.9,40.9c0,9,3.3,16.3,9.8,22c6.5,5.7,14.2,8.6,23.2,8.6c9.9,0,16.4-1.8,19.4-5.4c3-3.6,8.2-11,15.5-22.3
			c7.3-11.3,16-19.7,26.3-25.4c10.2-5.6,25.4-8.5,45.7-8.5c23.5,0,39.1,4.9,46.5,14.7c7.5,9.8,11.7,25.2,12.7,46.2
			c-16.7,4.9-32.2,9-46.5,12.4c-14.3,3.4-31.5,7.1-51.5,11.2c-20,4.1-32.6,6.7-37.6,7.9c-24.1,5.3-43.1,15.6-56.9,30.9
			c-13.8,15.4-20.7,33.9-20.7,55.7c0,16.1,4.2,31.1,12.5,44.9c8.4,13.8,20.3,24.8,35.7,32.8c15.5,8.1,33.4,12.1,53.8,12.1
			c22.4,0,42.6-3.7,60.5-11.2c18-7.5,36.6-18.7,55.9-33.7c8.9,14.6,17.4,25.7,25.4,33.4c8,7.7,16,11.5,24.2,11.5
			c9.7,0,18.4-3.4,26.1-10.1c7.7-6.7,11.5-14.2,11.5-22.3c0-4.7-2.5-15.1-7.4-31.4C744.7,624.2,742.3,608.6,742.3,593.6z
			 M664.6,555.4c0,27.6-3.6,47.5-10.8,59.5c-6.2,10.9-16,19.8-29.3,26.7c-13.3,6.9-27.9,10.4-43.6,10.4c-14.8,0-26.7-4.2-35.9-12.7
			c-9.1-8.5-13.7-18.7-13.7-30.8c0-11.7,3.9-20.8,11.7-27.3c7.8-6.5,15.9-10.9,24.5-13.1c8.6-2.2,24-5.7,46.2-10.5
			c22.3-4.8,39.2-9.3,50.9-13.6V555.4z"/>
		<path d="M1485.8,552.9c11.5-5.9,17.2-18.9,17.2-39c0-21.6-5.5-42.8-16.6-63.6c-11.1-20.8-27.8-37.8-50-50.9
			c-22.3-13.1-49-19.7-80.1-19.7c-23.9,0-45.7,3.8-65.4,11.5c-19.7,7.7-36.2,18.7-49.6,33.1c-13.4,14.4-23.6,31.7-30.6,51.8
			c-7,20.1-10.5,42-10.5,65.5c0,50,14.2,89.6,42.6,118.8c28.4,29.2,68.2,43.8,119.3,43.8c22.4,0,42.2-2.9,59.4-8.8
			c17.2-5.8,31.5-13.2,42.9-22c11.4-8.8,19.9-18.1,25.5-27.7c5.6-9.6,8.5-18,8.5-25.2c0-8.2-2.5-14.5-7.6-19
			c-5.1-4.5-11.7-6.7-19.8-6.7c-7.6,0-13.4,1.8-17.5,5.3c-9.9,9.3-18,16.7-24.2,22.2c-6.2,5.4-13,10.6-20.4,15.3
			c-7.4,4.8-15,8.3-22.9,10.5c-7.9,2.2-16.6,3.4-26.1,3.4c-14.2,0-27.2-3.5-39-10.5c-11.8-7-21.2-17.4-28.3-31.2
			c-7.1-13.8-10.8-29.8-10.9-47.9h155.8C1458.2,561.8,1474.3,558.9,1485.8,552.9z M1281.5,516.6c2.7-26.8,10.5-47.1,23.2-60.8
			c12.7-13.7,29-20.6,48.9-20.6c20.8,0,37.6,6.8,50.3,20.3c12.7,13.5,20.1,33.9,22,61.1H1281.5z"/>
		<path d="M1772.6,392.9c-15.8-8.4-32-12.5-48.7-12.5c-16.7,0-30.1,4.2-40.1,12.5c-10,8.4-19.8,20.7-29.3,37.1
			c-0.6-16.3-3.8-28.7-9.6-37.1c-5.8-8.4-15.4-12.5-28.6-12.5c-25.9,0-38.8,17.9-38.8,53.7v221.8c0,16,3.7,28,11.1,36.2
			c7.4,8.2,16.8,12.3,28.3,12.3c11.7,0,21.3-4,28.9-12.1c7.6-8.1,11.4-20.2,11.4-36.3v-66.5c0-23.9,0.8-44.2,2.3-60.8
			c1.6-16.6,4.4-31,8.5-43c4.1-12.1,9.8-21.2,17.2-27.3c7.4-6.1,16.9-9.2,28.6-9.2c8.6,0,18.4,1.8,29.6,5.4
			c11.2,3.6,18.2,5.4,21.2,5.4c7.8,0,15-3.2,21.7-9.5c6.7-6.3,10.1-14.3,10.1-24.1C1796.3,412.3,1788.4,401.2,1772.6,392.9z"/>
		<path d="M1078.2,399.7c-19.9-12.5-43.1-18.8-69.6-18.8c-23,0-42.2,4.1-57.8,12.4c-15.6,8.3-30.8,20.2-45.8,35.7V307.4
			c0-14.6-3.3-25.8-9.9-33.7c-6.6-7.9-16-11.8-28.3-11.8c-11.7,0-20.8,4.1-27.3,12.4c-6.5,8.3-9.8,20.5-9.8,36.6v347.8
			c0,15,3.4,26.3,10.1,34c6.7,7.7,15.7,11.5,27,11.5c11.1,0,128.7,0,140.9,0c20,0,38.4-4,55-12.1c16.6-8.1,30.8-19.5,42.5-34.3
			c11.7-14.8,20.6-32.2,26.7-52.4s9.2-42.3,9.2-66.4c0-32.7-5.5-60.9-16.5-84.8C1113.6,430.5,1098.2,412.3,1078.2,399.7z
			 M1061,550.7c-3.3,98.4-45.7,99.1-45.7,99.1s-46.4,0-81.4,0s-28.4-28.1-28.4-28.1l-0.5-86.2c0-39.7,15.9-62.9,33.9-76.5
			c2.6-2.4,5.3-4.6,8.2-6.6c11.9-8.3,25.4-12.4,40.6-12.4c0.1,0,0.3,0,0.4,0c0.1,0,0.1,0,0.1,0l0,0c14.6,0.1,27.3,4.2,38.3,12.4
			c11.1,8.3,19.6,20,25.7,35.2c6,15.2,9,33.3,9,54.3C1061.2,544.8,1061.1,547.7,1061,550.7z"/>
		<polygon points="1372.2,333.3 1385.1,269 1333.6,269 1351.6,355.9 		"/>
		<polygon points="1288.6,364.4 1247.9,299 1184.6,299 1252.2,364.4 		"/>
		<polygon points="1420.5,364.4 1456.9,364.4 1524.5,299 1461.2,299 		"/>
	</g>
	<g>
		<path d="M506.3,817v-66.9H528c8.2,0,13.6,0.3,16.1,1c3.8,1,7,3.2,9.6,6.6c2.6,3.4,3.9,7.7,3.9,13c0,4.1-0.7,7.6-2.2,10.4
			c-1.5,2.8-3.4,5-5.7,6.6c-2.3,1.6-4.6,2.7-7,3.2c-3.2,0.6-7.9,1-14,1h-8.8V817H506.3z M519.9,761.4v19h7.4c5.3,0,8.9-0.3,10.7-1.1
			c1.8-0.7,3.2-1.8,4.2-3.3c1-1.5,1.5-3.2,1.5-5.2c0-2.4-0.7-4.4-2.1-6c-1.4-1.6-3.2-2.6-5.4-3c-1.6-0.3-4.9-0.5-9.7-0.5H519.9z"/>
		<path d="M568.6,817v-66.9h12.8V817H568.6z"/>
		<path d="M604.2,783.3l-11.6-2.1c1.3-4.7,3.6-8.2,6.8-10.4c3.2-2.3,7.9-3.4,14.2-3.4c5.7,0,10,0.7,12.8,2c2.8,1.4,4.8,3.1,5.9,5.2
			c1.1,2.1,1.7,5.9,1.7,11.5l-0.1,15c0,4.3,0.2,7.4,0.6,9.4c0.4,2,1.2,4.2,2.3,6.5h-12.7c-0.3-0.9-0.7-2.1-1.2-3.8
			c-0.2-0.8-0.4-1.3-0.5-1.5c-2.2,2.1-4.5,3.7-7,4.8c-2.5,1.1-5.2,1.6-8,1.6c-5,0-8.9-1.4-11.8-4.1c-2.9-2.7-4.3-6.1-4.3-10.3
			c0-2.7,0.7-5.2,2-7.3c1.3-2.1,3.1-3.8,5.5-4.9c2.4-1.1,5.8-2.1,10.2-3c6-1.1,10.2-2.2,12.5-3.2v-1.3c0-2.5-0.6-4.2-1.8-5.3
			c-1.2-1-3.5-1.6-6.9-1.6c-2.3,0-4.1,0.4-5.3,1.3C606,779.5,605,781.1,604.2,783.3z M621.4,793.8c-1.6,0.5-4.2,1.2-7.8,2
			c-3.6,0.8-5.9,1.5-7,2.2c-1.7,1.2-2.5,2.7-2.5,4.5c0,1.8,0.7,3.3,2,4.7c1.3,1.3,3,2,5.1,2c2.3,0,4.5-0.8,6.6-2.3
			c1.6-1.2,2.6-2.6,3.1-4.2c0.3-1.1,0.5-3.2,0.5-6.3V793.8z"/>
		<path d="M668.8,768.6v10.2h-8.8v19.5c0,4,0.1,6.3,0.3,6.9c0.2,0.7,0.5,1.2,1.1,1.6c0.6,0.4,1.3,0.6,2.2,0.6c1.2,0,2.9-0.4,5.2-1.2
			l1.1,10c-3,1.3-6.4,1.9-10.1,1.9c-2.3,0-4.4-0.4-6.3-1.2c-1.9-0.8-3.2-1.8-4.1-3c-0.9-1.2-1.5-2.9-1.8-5c-0.3-1.5-0.4-4.5-0.4-9
			v-21.1h-5.9v-10.2h5.9v-9.6l12.9-7.5v17.1H668.8z"/>
		<path d="M687.3,783.3l-11.6-2.1c1.3-4.7,3.6-8.2,6.8-10.4c3.2-2.3,7.9-3.4,14.2-3.4c5.7,0,10,0.7,12.8,2c2.8,1.4,4.8,3.1,5.9,5.2
			c1.1,2.1,1.7,5.9,1.7,11.5l-0.1,15c0,4.3,0.2,7.4,0.6,9.4c0.4,2,1.2,4.2,2.3,6.5h-12.7c-0.3-0.9-0.7-2.1-1.2-3.8
			c-0.2-0.8-0.4-1.3-0.5-1.5c-2.2,2.1-4.5,3.7-7,4.8c-2.5,1.1-5.2,1.6-8,1.6c-5,0-8.9-1.4-11.8-4.1c-2.9-2.7-4.3-6.1-4.3-10.3
			c0-2.7,0.7-5.2,2-7.3c1.3-2.1,3.1-3.8,5.5-4.9c2.4-1.1,5.8-2.1,10.2-3c6-1.1,10.2-2.2,12.5-3.2v-1.3c0-2.5-0.6-4.2-1.8-5.3
			c-1.2-1-3.5-1.6-6.9-1.6c-2.3,0-4.1,0.4-5.3,1.3C689.2,779.5,688.1,781.1,687.3,783.3z M704.5,793.8c-1.6,0.5-4.2,1.2-7.8,2
			c-3.6,0.8-5.9,1.5-7,2.2c-1.7,1.2-2.5,2.7-2.5,4.5c0,1.8,0.7,3.3,2,4.7c1.3,1.3,3,2,5.1,2c2.3,0,4.5-0.8,6.6-2.3
			c1.6-1.2,2.6-2.6,3.1-4.2c0.3-1.1,0.5-3.2,0.5-6.3V793.8z"/>
		<path d="M724.1,768.6h7.1v-3.7c0-4.1,0.4-7.1,1.3-9.1c0.9-2,2.5-3.6,4.8-4.9c2.3-1.3,5.3-1.9,8.8-1.9c3.7,0,7.2,0.5,10.7,1.6
			l-1.7,8.9c-2-0.5-4-0.7-5.9-0.7c-1.9,0-3.2,0.4-4,1.3c-0.8,0.9-1.2,2.5-1.2,5v3.4h9.6v10.1h-9.6V817h-12.8v-38.4h-7.1V768.6z"/>
		<path d="M757.9,792.1c0-4.3,1.1-8.4,3.2-12.4c2.1-4,5.1-7,8.9-9.1c3.9-2.1,8.1-3.2,12.9-3.2c7.3,0,13.3,2.4,18,7.1
			c4.7,4.8,7,10.8,7,18.1c0,7.3-2.4,13.4-7.1,18.2c-4.7,4.8-10.7,7.2-17.9,7.2c-4.4,0-8.7-1-12.7-3c-4-2-7.1-5-9.2-8.8
			C759,802.4,757.9,797.7,757.9,792.1z M771.1,792.8c0,4.8,1.1,8.5,3.4,11c2.3,2.6,5.1,3.8,8.4,3.8c3.3,0,6.2-1.3,8.4-3.8
			c2.3-2.6,3.4-6.3,3.4-11.1c0-4.7-1.1-8.4-3.4-11c-2.3-2.6-5.1-3.8-8.4-3.8c-3.3,0-6.2,1.3-8.4,3.8
			C772.2,784.3,771.1,788,771.1,792.8z"/>
		<path d="M830.3,817h-12.8v-48.5h11.9v6.9c2-3.3,3.9-5.4,5.5-6.4c1.6-1,3.5-1.6,5.5-1.6c2.9,0,5.7,0.8,8.4,2.4l-4,11.2
			c-2.2-1.4-4.2-2.1-6-2.1c-1.8,0-3.3,0.5-4.6,1.5c-1.2,1-2.2,2.8-2.9,5.4c-0.7,2.6-1.1,8-1.1,16.3V817z"/>
		<path d="M853.4,768.6h11.8v6.6c4.2-5.1,9.3-7.7,15.1-7.7c3.1,0,5.8,0.6,8.1,1.9c2.3,1.3,4.2,3.2,5.6,5.8c2.1-2.6,4.4-4.5,6.9-5.8
			c2.5-1.3,5.1-1.9,7.9-1.9c3.6,0,6.6,0.7,9,2.2c2.5,1.4,4.3,3.6,5.5,6.4c0.9,2.1,1.3,5.4,1.3,10v31h-12.8v-27.7
			c0-4.8-0.4-7.9-1.3-9.3c-1.2-1.8-3-2.7-5.5-2.7c-1.8,0-3.5,0.5-5.1,1.6c-1.6,1.1-2.7,2.7-3.4,4.8c-0.7,2.1-1.1,5.5-1.1,10V817
			h-12.8v-26.6c0-4.7-0.2-7.8-0.7-9.1c-0.5-1.4-1.2-2.4-2.1-3.1c-1-0.7-2.3-1-3.9-1c-2,0-3.8,0.5-5.3,1.6c-1.6,1.1-2.7,2.6-3.4,4.6
			c-0.7,2-1,5.3-1,10V817h-12.8V768.6z"/>
		<path d="M947.1,783.3l-11.6-2.1c1.3-4.7,3.6-8.2,6.8-10.4c3.2-2.3,7.9-3.4,14.2-3.4c5.7,0,10,0.7,12.8,2c2.8,1.4,4.8,3.1,5.9,5.2
			c1.1,2.1,1.7,5.9,1.7,11.5l-0.1,15c0,4.3,0.2,7.4,0.6,9.4c0.4,2,1.2,4.2,2.3,6.5H967c-0.3-0.9-0.7-2.1-1.2-3.8
			c-0.2-0.8-0.4-1.3-0.5-1.5c-2.2,2.1-4.5,3.7-7,4.8c-2.5,1.1-5.2,1.6-8,1.6c-5,0-8.9-1.4-11.8-4.1c-2.9-2.7-4.3-6.1-4.3-10.3
			c0-2.7,0.7-5.2,2-7.3c1.3-2.1,3.1-3.8,5.5-4.9c2.4-1.1,5.8-2.1,10.2-3c6-1.1,10.2-2.2,12.5-3.2v-1.3c0-2.5-0.6-4.2-1.8-5.3
			c-1.2-1-3.5-1.6-6.9-1.6c-2.3,0-4.1,0.4-5.3,1.3C948.9,779.5,947.9,781.1,947.1,783.3z M964.3,793.8c-1.6,0.5-4.2,1.2-7.8,2
			c-3.6,0.8-5.9,1.5-7,2.2c-1.7,1.2-2.5,2.7-2.5,4.5c0,1.8,0.7,3.3,2,4.7c1.3,1.3,3,2,5.1,2c2.3,0,4.5-0.8,6.6-2.3
			c1.6-1.2,2.6-2.6,3.1-4.2c0.3-1.1,0.5-3.2,0.5-6.3V793.8z"/>
		<path d="M1015.4,817v-66.9h20.2l12.1,45.7l12-45.7h20.3V817h-12.6v-52.7l-13.3,52.7h-13l-13.2-52.7V817H1015.4z"/>
		<path d="M1093.4,762v-11.9h12.8V762H1093.4z M1093.4,817v-48.5h12.8V817H1093.4z"/>
		<path d="M1163.5,817h-12.8v-24.7c0-5.2-0.3-8.6-0.8-10.2c-0.5-1.5-1.4-2.7-2.7-3.6c-1.2-0.9-2.7-1.3-4.5-1.3c-2.2,0-4.2,0.6-6,1.8
			c-1.8,1.2-3,2.8-3.6,4.8c-0.7,2-1,5.7-1,11.1v22h-12.8v-48.5h11.9v7.1c4.2-5.5,9.6-8.2,16-8.2c2.8,0,5.4,0.5,7.8,1.5
			c2.3,1,4.1,2.3,5.3,3.9c1.2,1.6,2,3.4,2.5,5.4c0.5,2,0.7,4.9,0.7,8.6V817z"/>
		<path d="M1176.5,762v-11.9h12.8V762H1176.5z M1176.5,817v-48.5h12.8V817H1176.5z"/>
		<path d="M1198,803.2l12.9-2c0.5,2.5,1.7,4.4,3.3,5.7c1.7,1.3,4,1.9,7,1.9c3.3,0,5.8-0.6,7.5-1.8c1.1-0.9,1.7-2,1.7-3.4
			c0-1-0.3-1.8-0.9-2.4c-0.6-0.6-2.1-1.2-4.3-1.7c-10.3-2.3-16.9-4.4-19.7-6.3c-3.8-2.6-5.8-6.3-5.8-10.9c0-4.2,1.7-7.7,5-10.6
			c3.3-2.9,8.5-4.3,15.4-4.3c6.6,0,11.6,1.1,14.8,3.2c3.2,2.2,5.4,5.4,6.7,9.6l-12.1,2.2c-0.5-1.9-1.5-3.3-2.9-4.3
			c-1.4-1-3.5-1.5-6.2-1.5c-3.4,0-5.8,0.5-7.3,1.4c-1,0.7-1.5,1.5-1.5,2.6c0,0.9,0.4,1.7,1.3,2.3c1.2,0.9,5.2,2.1,12,3.6
			c6.8,1.6,11.6,3.5,14.3,5.7c2.7,2.3,4,5.5,4,9.5c0,4.4-1.9,8.3-5.6,11.5c-3.7,3.2-9.2,4.8-16.5,4.8c-6.6,0-11.8-1.3-15.7-4
			C1201.7,811.4,1199.1,807.8,1198,803.2z"/>
		<path d="M1276.7,768.6v10.2h-8.8v19.5c0,4,0.1,6.3,0.3,6.9c0.2,0.7,0.5,1.2,1.1,1.6c0.6,0.4,1.3,0.6,2.2,0.6
			c1.2,0,2.9-0.4,5.2-1.2l1.1,10c-3,1.3-6.4,1.9-10.1,1.9c-2.3,0-4.4-0.4-6.3-1.2c-1.9-0.8-3.2-1.8-4.1-3c-0.9-1.2-1.5-2.9-1.8-5
			c-0.3-1.5-0.4-4.5-0.4-9v-21.1h-5.9v-10.2h5.9v-9.6l12.9-7.5v17.1H1276.7z"/>
		<path d="M1313.7,801.6l12.8,2.1c-1.6,4.7-4.2,8.3-7.8,10.7c-3.5,2.5-8,3.7-13.3,3.7c-8.4,0-14.7-2.8-18.7-8.3
			c-3.2-4.4-4.8-10-4.8-16.7c0-8,2.1-14.3,6.3-18.9c4.2-4.5,9.5-6.8,15.9-6.8c7.2,0,12.9,2.4,17.1,7.1c4.2,4.8,6.2,12.1,6,21.9H1295
			c0.1,3.8,1.1,6.8,3.1,8.9c2,2.1,4.4,3.2,7.4,3.2c2,0,3.7-0.5,5.1-1.6C1312,805.8,1313,804,1313.7,801.6z M1314.4,788.6
			c-0.1-3.7-1.1-6.5-2.9-8.5c-1.8-1.9-4-2.9-6.7-2.9c-2.8,0-5.1,1-6.9,3.1c-1.8,2-2.7,4.8-2.7,8.3H1314.4z"/>
		<path d="M1349.9,817h-12.8v-48.5h11.9v6.9c2-3.3,3.9-5.4,5.5-6.4c1.6-1,3.5-1.6,5.5-1.6c2.9,0,5.7,0.8,8.4,2.4l-4,11.2
			c-2.2-1.4-4.2-2.1-6-2.1c-1.8,0-3.3,0.5-4.6,1.5c-1.2,1-2.2,2.8-2.9,5.4c-0.7,2.6-1.1,8-1.1,16.3V817z"/>
		<path d="M1374,762v-11.9h12.8V762H1374z M1374,817v-48.5h12.8V817H1374z"/>
		<path d="M1409.6,783.3l-11.6-2.1c1.3-4.7,3.6-8.2,6.8-10.4c3.2-2.3,7.9-3.4,14.2-3.4c5.7,0,10,0.7,12.8,2c2.8,1.4,4.8,3.1,5.9,5.2
			c1.1,2.1,1.7,5.9,1.7,11.5l-0.1,15c0,4.3,0.2,7.4,0.6,9.4c0.4,2,1.2,4.2,2.3,6.5h-12.7c-0.3-0.9-0.7-2.1-1.2-3.8
			c-0.2-0.8-0.4-1.3-0.5-1.5c-2.2,2.1-4.5,3.7-7,4.8c-2.5,1.1-5.2,1.6-8,1.6c-5,0-8.9-1.4-11.8-4.1c-2.9-2.7-4.3-6.1-4.3-10.3
			c0-2.7,0.7-5.2,2-7.3c1.3-2.1,3.1-3.8,5.5-4.9c2.4-1.1,5.8-2.1,10.2-3c6-1.1,10.2-2.2,12.5-3.2v-1.3c0-2.5-0.6-4.2-1.8-5.3
			c-1.2-1-3.5-1.6-6.9-1.6c-2.3,0-4.1,0.4-5.3,1.3C1411.4,779.5,1410.4,781.1,1409.6,783.3z M1426.7,793.8c-1.6,0.5-4.2,1.2-7.8,2
			c-3.6,0.8-5.9,1.5-7,2.2c-1.7,1.2-2.5,2.7-2.5,4.5c0,1.8,0.7,3.3,2,4.7c1.3,1.3,3,2,5.1,2c2.3,0,4.5-0.8,6.6-2.3
			c1.6-1.2,2.6-2.6,3.1-4.2c0.3-1.1,0.5-3.2,0.5-6.3V793.8z"/>
		<path d="M1452,817v-66.9h12.8V817H1452z"/>
		<path d="M1503.8,817v-66.9h20.2l12.1,45.7l12-45.7h20.3V817h-12.6v-52.7l-13.3,52.7h-13l-13.2-52.7V817H1503.8z"/>
		<path d="M1581.9,817v-66.9h49.6v11.3h-36.1v14.8h33.6v11.3h-33.6v18.2h37.4V817H1581.9z"/>
		<path d="M1644.3,817v-66.9h21.7c8.2,0,13.6,0.3,16.1,1c3.8,1,7,3.2,9.6,6.6c2.6,3.4,3.9,7.7,3.9,13c0,4.1-0.7,7.6-2.2,10.4
			c-1.5,2.8-3.4,5-5.7,6.6c-2.3,1.6-4.6,2.7-7,3.2c-3.2,0.6-7.9,1-14,1h-8.8V817H1644.3z M1657.8,761.4v19h7.4
			c5.3,0,8.9-0.3,10.7-1.1c1.8-0.7,3.2-1.8,4.2-3.3c1-1.5,1.5-3.2,1.5-5.2c0-2.4-0.7-4.4-2.1-6c-1.4-1.6-3.2-2.6-5.4-3
			c-1.6-0.3-4.9-0.5-9.7-0.5H1657.8z"/>
	</g>
	<path class="st0" d="M664.6,555.4c0,27.6-3.6,47.5-10.8,59.5c-6.2,10.9-16,19.8-29.3,26.7c-13.3,6.9-27.9,10.4-43.6,10.4
		c-14.8,0-26.7-4.2-35.9-12.7c-9.1-8.5-13.7-18.7-13.7-30.8c0-11.7,3.9-20.8,11.7-27.3c7.8-6.5,15.9-10.9,24.5-13.1
		c8.6-2.2,24-5.7,46.2-10.5c22.3-4.8,39.2-9.3,50.9-13.6V555.4z"/>
	<path class="st1" d="M1281.5,516.6c2.7-26.8,10.5-47.1,23.2-60.8c12.7-13.7,29-20.6,48.9-20.6c20.8,0,37.6,6.8,50.3,20.3
		c12.7,13.5,20.1,33.9,22,61.1H1281.5z"/>
	<path class="st2" d="M1061,550.7c-3.3,98.4-45.7,99.1-45.7,99.1s-46.4,0-81.4,0s-28.4-28.1-28.4-28.1l-0.5-86.2
		c0-39.7,15.9-62.9,33.9-76.5c2.6-2.4,5.3-4.6,8.2-6.6c11.9-8.3,25.4-12.4,40.6-12.4c0.1,0,0.3,0,0.4,0c0.1,0,0.1,0,0.1,0l0,0
		c14.6,0.1,27.3,4.2,38.3,12.4c11.1,8.3,19.6,20,25.7,35.2c6,15.2,9,33.3,9,54.3C1061.2,544.8,1061.1,547.7,1061,550.7z"/>
</g>
</svg>
