<svg width="1673" height="444" viewBox="0 0 1673 444" fill="none" xmlns="http://www.w3.org/2000/svg">
<path d="M225.2 270.5C209.5 262.1 189.4 254.9 164.7 248.9C143.9 243.8 127.5 239.6 115.7 236.1C103.8 232.6 94.4002 228.2 87.4002 222.8C80.4002 217.5 76.9002 210.6 76.9002 202.2C76.9002 193.1 81.7002 185.4 91.2002 179.3C100.7 173.2 112.7 170.1 127.1 170.1C141.1 170.1 152.2 172.4 160.4 177.1C168.6 181.8 175.7 188 181.7 195.8C189.1 205.1 195.7 212.1 201.4 216.8C207.1 221.5 214.1 223.8 222.3 223.8C233.6 223.8 242.3 220.9 248.4 215C254.5 209.2 257.6 201.7 257.6 192.5C257.6 184.1 254.7 175.6 249 166.8C243.3 158 234.9 150.1 223.9 142.9C212.9 135.7 199.2 130 182.8 125.7C166.4 121.4 147.8 119.3 127.2 119.3C100.9 119.3 78.5002 123.5 59.9002 132C41.3002 140.5 27.3002 151.8 17.7002 166C8.2002 180.2 3.4002 195.3 3.4002 211.2C3.4002 229.1 8.60019 244.2 18.9002 256.4C29.2002 268.7 43.0002 278.5 60.2002 286C77.4002 293.5 99.7002 300.6 127.2 307.4C151.5 313.2 169 319.4 179.6 325.8C190.2 332.2 195.5 342.4 195.5 356.4C195.5 365.5 190.4 373.7 180.2 380.8C170 387.9 156.9 391.5 141 391.5C121.3 391.5 105.8 388 94.5002 381C83.1002 374 73.3002 363.4 65.2002 349.2C61.1002 341.8 56.8002 336.1 52.4002 332C47.9002 327.9 41.5002 325.9 33.1002 325.9C23.6002 325.9 15.7002 329 9.5002 335.2C3.3002 341.4 0.200195 348.9 0.200195 357.7C0.200195 370.9 5.1002 384.1 14.8002 397.2C24.5002 410.3 39.6002 421.3 60.0002 430C80.4002 438.8 104.9 443.1 133.5 443.1C163.5 443.1 188.9 439.1 209.8 431C230.7 422.9 246.5 411.1 257.2 395.4C267.9 379.7 273.2 360.9 273.2 338.9C273.2 324.3 269.2 311.3 261.1 299.9C252.7 288.7 240.8 278.8 225.2 270.5Z" fill="black"/>
<path d="M618.3 332.6C618.5 316.7 618.6 302.2 618.7 289.1C618.8 276.1 618.8 260.2 618.8 241.5C618.8 211.9 614.7 188.2 606.4 170.3C598.1 152.4 584 139.3 563.9 131.1C543.9 122.8 516.3 118.7 481.3 118.7C450 118.7 423.8 123 402.8 131.5C381.8 140.1 366.3 151 356.4 164.2C346.5 177.4 341.5 191 341.5 205.1C341.5 214.1 344.8 221.4 351.3 227.1C357.8 232.8 365.5 235.7 374.5 235.7C384.4 235.7 390.9 233.9 393.9 230.3C396.9 226.7 402.1 219.3 409.4 208C416.7 196.7 425.4 188.3 435.7 182.6C445.9 177 461.1 174.1 481.4 174.1C504.9 174.1 520.5 179 527.9 188.8C535.4 198.6 539.6 214 540.6 235C523.9 239.9 508.4 244 494.1 247.4C479.8 250.8 462.6 254.5 442.6 258.6C422.6 262.7 410 265.3 405 266.5C380.9 271.8 361.9 282.1 348.1 297.4C334.3 312.8 327.4 331.3 327.4 353.1C327.4 369.2 331.6 384.2 339.9 398C348.3 411.8 360.2 422.8 375.6 430.8C391.1 438.9 409 442.9 429.4 442.9C451.8 442.9 472 439.2 489.9 431.7C507.9 424.2 526.5 413 545.8 398C554.7 412.6 563.2 423.7 571.2 431.4C579.2 439.1 587.2 442.9 595.4 442.9C605.1 442.9 613.8 439.5 621.5 432.8C629.2 426.1 633 418.6 633 410.5C633 405.8 630.5 395.4 625.6 379.1C620.7 363.2 618.3 347.6 618.3 332.6ZM540.6 294.4C540.6 322 537 341.9 529.8 353.9C523.6 364.8 513.8 373.7 500.5 380.6C487.2 387.5 472.6 391 456.9 391C442.1 391 430.2 386.8 421 378.3C411.9 369.8 407.3 359.6 407.3 347.5C407.3 335.8 411.2 326.7 419 320.2C426.8 313.7 434.9 309.3 443.5 307.1C452.1 304.9 467.5 301.4 489.7 296.6C512 291.8 528.9 287.3 540.6 283V294.4V294.4Z" fill="black"/>
<path d="M1361.8 291.9C1373.3 286 1379 273 1379 252.9C1379 231.3 1373.5 210.1 1362.4 189.3C1351.3 168.5 1334.6 151.5 1312.4 138.4C1290.1 125.3 1263.4 118.7 1232.3 118.7C1208.4 118.7 1186.6 122.5 1166.9 130.2C1147.2 137.9 1130.7 148.9 1117.3 163.3C1103.9 177.7 1093.7 195 1086.7 215.1C1079.7 235.2 1076.2 257.1 1076.2 280.6C1076.2 330.6 1090.4 370.2 1118.8 399.4C1147.2 428.6 1187 443.2 1238.1 443.2C1260.5 443.2 1280.3 440.3 1297.5 434.4C1314.7 428.6 1329 421.2 1340.4 412.4C1351.8 403.6 1360.3 394.3 1365.9 384.7C1371.5 375.1 1374.4 366.7 1374.4 359.5C1374.4 351.3 1371.9 345 1366.8 340.5C1361.7 336 1355.1 333.8 1347 333.8C1339.4 333.8 1333.6 335.6 1329.5 339.1C1319.6 348.4 1311.5 355.8 1305.3 361.3C1299.1 366.7 1292.3 371.9 1284.9 376.6C1277.5 381.4 1269.9 384.9 1262 387.1C1254.1 389.3 1245.4 390.5 1235.9 390.5C1221.7 390.5 1208.7 387 1196.9 380C1185.1 373 1175.7 362.6 1168.6 348.8C1161.5 335 1157.8 319 1157.7 300.9H1313.5C1334.2 300.8 1350.3 297.9 1361.8 291.9ZM1157.5 255.6C1160.2 228.8 1168 208.5 1180.7 194.8C1193.4 181.1 1209.7 174.2 1229.6 174.2C1250.4 174.2 1267.2 181 1279.9 194.5C1292.6 208 1300 228.4 1301.9 255.6H1157.5Z" fill="black"/>
<path d="M1648.6 131.9C1632.8 123.5 1616.6 119.4 1599.9 119.4C1583.2 119.4 1569.8 123.6 1559.8 131.9C1549.8 140.3 1540 152.6 1530.5 169C1529.9 152.7 1526.7 140.3 1520.9 131.9C1515.1 123.5 1505.5 119.4 1492.3 119.4C1466.4 119.4 1453.5 137.3 1453.5 173.1V394.9C1453.5 410.9 1457.2 422.9 1464.6 431.1C1472 439.3 1481.4 443.4 1492.9 443.4C1504.6 443.4 1514.2 439.4 1521.8 431.3C1529.4 423.2 1533.2 411.1 1533.2 395V328.5C1533.2 304.6 1534 284.3 1535.5 267.7C1537.1 251.1 1539.9 236.7 1544 224.7C1548.1 212.6 1553.8 203.5 1561.2 197.4C1568.6 191.3 1578.1 188.2 1589.8 188.2C1598.4 188.2 1608.2 190 1619.4 193.6C1630.6 197.2 1637.6 199 1640.6 199C1648.4 199 1655.6 195.8 1662.3 189.5C1669 183.2 1672.4 175.2 1672.4 165.4C1672.3 151.3 1664.4 140.2 1648.6 131.9Z" fill="black"/>
<path d="M954.2 138.7C934.3 126.2 911.1 119.9 884.6 119.9C861.6 119.9 842.4 124 826.8 132.3C811.2 140.6 796 152.5 781 168V46.3999C781 31.7999 777.7 20.5999 771.1 12.6999C764.5 4.79992 755.1 0.899902 742.8 0.899902C731.1 0.899902 722 4.9999 715.5 13.2999C709 21.5999 705.7 33.7999 705.7 49.8999V397.7C705.7 412.7 709.1 424 715.8 431.7C722.5 439.4 731.5 443.2 742.8 443.2C753.9 443.2 871.5 443.2 883.7 443.2C903.7 443.2 922.1 439.2 938.7 431.1C955.3 423 969.5 411.6 981.2 396.8C992.9 382 1001.8 364.6 1007.9 344.4C1014 324.2 1017.1 302.1 1017.1 278C1017.1 245.3 1011.6 217.1 1000.6 193.2C989.6 169.5 974.2 151.3 954.2 138.7ZM937 289.7C933.7 388.1 891.3 388.8 891.3 388.8C891.3 388.8 844.9 388.8 809.9 388.8C774.9 388.8 781.5 360.7 781.5 360.7L781 274.5C781 234.8 796.9 211.6 814.9 198C817.5 195.6 820.2 193.4 823.1 191.4C835 183.1 848.5 179 863.7 179C863.8 179 864 179 864.1 179C864.2 179 864.2 179 864.2 179C878.8 179.1 891.5 183.2 902.5 191.4C913.6 199.7 922.1 211.4 928.2 226.6C934.2 241.8 937.2 259.9 937.2 280.9C937.2 283.8 937.1 286.7 937 289.7Z" fill="black"/>
<path d="M1248.2 72.3L1261.1 8H1209.6L1227.6 94.9L1248.2 72.3Z" fill="black"/>
<path d="M1164.6 103.4L1123.9 38H1060.6L1128.2 103.4H1164.6Z" fill="black"/>
<path d="M1296.5 103.4H1332.9L1400.5 38H1337.2L1296.5 103.4Z" fill="black"/>
<path d="M540.6 294.4C540.6 322 537 341.9 529.8 353.9C523.6 364.8 513.8 373.7 500.5 380.6C487.2 387.5 472.6 391 456.9 391C442.1 391 430.2 386.8 421 378.3C411.9 369.8 407.3 359.6 407.3 347.5C407.3 335.8 411.2 326.7 419 320.2C426.8 313.7 434.9 309.3 443.5 307.1C452.1 304.9 467.5 301.4 489.7 296.6C512 291.8 528.9 287.3 540.6 283V294.4V294.4Z" fill="#A45494"/>
<path d="M1157.5 255.6C1160.2 228.8 1168 208.5 1180.7 194.8C1193.4 181.1 1209.7 174.2 1229.6 174.2C1250.4 174.2 1267.2 181 1279.9 194.5C1292.6 208 1300 228.4 1301.9 255.6H1157.5Z" fill="#03A0DE"/>
<path d="M937 289.7C933.7 388.1 891.3 388.8 891.3 388.8C891.3 388.8 844.9 388.8 809.9 388.8C774.9 388.8 781.5 360.7 781.5 360.7L781 274.5C781 234.8 796.9 211.6 814.9 198C817.5 195.6 820.2 193.4 823.1 191.4C835 183.1 848.5 179 863.7 179C863.8 179 864 179 864.1 179C864.2 179 864.2 179 864.2 179C878.8 179.1 891.5 183.2 902.5 191.4C913.6 199.7 922.1 211.4 928.2 226.6C934.2 241.8 937.2 259.9 937.2 280.9C937.2 283.8 937.1 286.7 937 289.7Z" fill="#FFCB31"/>
</svg>
