<svg xmlns="http://www.w3.org/2000/svg" width="441.138" height="389.287" viewBox="0 0 441.138 389.287">
  <g id="File_searching-bro_1_" data-name="File searching-bro (1)" transform="translate(-61.984 -82.081)">
    <g id="freepik--background-simple--inject-96" transform="translate(61.984 103.358)">
      <path id="Trazado_1764" data-name="Trazado 1764" d="M487.675,160.829v-.151c-6.236-21.524-25.059-35.5-43.639-46.166-37.5-21.524-72.269-7.835-126.34,5.8s-86.931-.371-136.007-15.474c-73.324-22.544-128.554,47-118.528,116.059C67.9,253.428,82.576,283.4,88.522,315.671c8.7,47.3-25.581,69.151,1.611,109.046s100.527,49.006,149.452,41.3c29.638-4.636,55.3-21.223,83.315-30.89,26.276-9.064,54.836-7.094,81.136.8,24.4,7.314,53.318,14.512,74-5.239,23.518-22.451,31.376-49.018,19.843-79.5-9.991-26.392-28.745-48.832-37.264-75.816-7.186-22.706,6.491-35.364,17.062-53.735C487.9,203.866,493.448,180.951,487.675,160.829Z" transform="translate(-61.984 -100.507)" fill="#145388"/>
      <path id="Trazado_1765" data-name="Trazado 1765" d="M487.675,160.829v-.151c-6.236-21.524-25.059-35.5-43.639-46.166-37.5-21.524-72.269-7.835-126.34,5.8s-86.931-.371-136.007-15.474c-73.324-22.544-128.554,47-118.528,116.059C67.9,253.428,82.576,283.4,88.522,315.671c8.7,47.3-25.581,69.151,1.611,109.046s100.527,49.006,149.452,41.3c29.638-4.636,55.3-21.223,83.315-30.89,26.276-9.064,54.836-7.094,81.136.8,24.4,7.314,53.318,14.512,74-5.239,23.518-22.451,31.376-49.018,19.843-79.5-9.991-26.392-28.745-48.832-37.264-75.816-7.186-22.706,6.491-35.364,17.062-53.735C487.9,203.866,493.448,180.951,487.675,160.829Z" transform="translate(-61.984 -100.507)" fill="#fff" opacity="0.7"/>
    </g>
    <g id="freepik--Files--inject-96" transform="translate(108.053 109.192)">
      <path id="Trazado_1766" data-name="Trazado 1766" d="M271.194,292.667H238.74V249.19h22.788l9.667,8.855Z" transform="translate(-79.934 -82.688)"/>
      <path id="Trazado_1767" data-name="Trazado 1767" d="M272.834,291.4H240.38V247.93h22.788l9.667,8.855Z" transform="translate(-79.673 -82.888)" fill="#fff" stroke="#263238" stroke-linecap="round" stroke-linejoin="round" stroke-width="1"/>
      <path id="Trazado_1768" data-name="Trazado 1768" d="M260.366,247.93l-2.376,10.4,12.043-1.542Z" transform="translate(-76.872 -82.888)" stroke="#263238" stroke-linecap="round" stroke-linejoin="round" stroke-width="1"/>
      <path id="Trazado_1769" data-name="Trazado 1769" d="M260.04,247.93v8.855h9.667Z" transform="translate(-76.546 -82.888)" fill="#fff" stroke="#263238" stroke-linecap="round" stroke-linejoin="round" stroke-width="1"/>
      <line id="Línea_146" data-name="Línea 146" x2="18.499" transform="translate(166.908 180.284)" fill="#fff" stroke="#263238" stroke-linecap="round" stroke-linejoin="round" stroke-width="1"/>
      <line id="Línea_147" data-name="Línea 147" x2="18.499" transform="translate(166.908 184.816)" fill="#fff" stroke="#263238" stroke-linecap="round" stroke-linejoin="round" stroke-width="1"/>
      <line id="Línea_148" data-name="Línea 148" x2="18.499" transform="translate(166.908 189.348)" fill="#fff" stroke="#263238" stroke-linecap="round" stroke-linejoin="round" stroke-width="1"/>
      <line id="Línea_149" data-name="Línea 149" x2="18.499" transform="translate(166.908 193.891)" fill="#fff" stroke="#263238" stroke-linecap="round" stroke-linejoin="round" stroke-width="1"/>
      <line id="Línea_150" data-name="Línea 150" x2="18.499" transform="translate(166.908 198.423)" fill="#fff" stroke="#263238" stroke-linecap="round" stroke-linejoin="round" stroke-width="1"/>
      <path id="Trazado_1770" data-name="Trazado 1770" d="M405.864,292.667H373.41V249.19H396.2l9.667,8.855Z" transform="translate(-58.511 -82.688)"/>
      <path id="Trazado_1771" data-name="Trazado 1771" d="M407.494,291.4H375.04V247.93h22.788l9.667,8.855Z" transform="translate(-58.251 -82.888)" fill="#fff" stroke="#263238" stroke-linecap="round" stroke-linejoin="round" stroke-width="1"/>
      <path id="Trazado_1772" data-name="Trazado 1772" d="M395.025,247.93l-2.365,10.4,12.031-1.542Z" transform="translate(-55.448 -82.888)" stroke="#263238" stroke-linecap="round" stroke-linejoin="round" stroke-width="1"/>
      <path id="Trazado_1773" data-name="Trazado 1773" d="M394.7,247.93v8.855h9.667Z" transform="translate(-55.124 -82.888)" fill="#fff" stroke="#263238" stroke-linecap="round" stroke-linejoin="round" stroke-width="1"/>
      <line id="Línea_151" data-name="Línea 151" x2="18.499" transform="translate(323.001 180.284)" fill="#fff" stroke="#263238" stroke-linecap="round" stroke-linejoin="round" stroke-width="1"/>
      <line id="Línea_152" data-name="Línea 152" x2="18.499" transform="translate(323.001 184.816)" fill="#fff" stroke="#263238" stroke-linecap="round" stroke-linejoin="round" stroke-width="1"/>
      <line id="Línea_153" data-name="Línea 153" x2="18.499" transform="translate(323.001 189.348)" fill="#fff" stroke="#263238" stroke-linecap="round" stroke-linejoin="round" stroke-width="1"/>
      <line id="Línea_154" data-name="Línea 154" x2="18.499" transform="translate(323.001 193.891)" fill="#fff" stroke="#263238" stroke-linecap="round" stroke-linejoin="round" stroke-width="1"/>
      <line id="Línea_155" data-name="Línea 155" x2="18.499" transform="translate(323.001 198.423)" fill="#fff" stroke="#263238" stroke-linecap="round" stroke-linejoin="round" stroke-width="1"/>
      <path id="Trazado_1774" data-name="Trazado 1774" d="M134.184,292.667H101.73V249.19h22.788l9.667,8.855Z" transform="translate(-101.73 -82.688)"/>
      <path id="Trazado_1775" data-name="Trazado 1775" d="M135.824,291.4H103.37V247.93h22.788l9.667,8.855Z" transform="translate(-101.469 -82.888)" fill="#fff" stroke="#263238" stroke-linecap="round" stroke-linejoin="round" stroke-width="1"/>
      <path id="Trazado_1776" data-name="Trazado 1776" d="M123.356,247.93l-2.376,10.4,12.043-1.542Z" transform="translate(-98.668 -82.888)" stroke="#263238" stroke-linecap="round" stroke-linejoin="round" stroke-width="1"/>
      <path id="Trazado_1777" data-name="Trazado 1777" d="M123.03,247.93v8.855H132.7Z" transform="translate(-98.342 -82.888)" fill="#fff" stroke="#263238" stroke-linecap="round" stroke-linejoin="round" stroke-width="1"/>
      <line id="Línea_156" data-name="Línea 156" x2="18.499" transform="translate(8.114 180.284)" fill="#fff" stroke="#263238" stroke-linecap="round" stroke-linejoin="round" stroke-width="1"/>
      <line id="Línea_157" data-name="Línea 157" x2="18.499" transform="translate(8.114 184.816)" fill="#fff" stroke="#263238" stroke-linecap="round" stroke-linejoin="round" stroke-width="1"/>
      <line id="Línea_158" data-name="Línea 158" x2="18.499" transform="translate(8.114 189.348)" fill="#fff" stroke="#263238" stroke-linecap="round" stroke-linejoin="round" stroke-width="1"/>
      <line id="Línea_159" data-name="Línea 159" x2="18.499" transform="translate(8.114 193.891)" fill="#fff" stroke="#263238" stroke-linecap="round" stroke-linejoin="round" stroke-width="1"/>
      <line id="Línea_160" data-name="Línea 160" x2="18.499" transform="translate(8.114 198.423)" fill="#fff" stroke="#263238" stroke-linecap="round" stroke-linejoin="round" stroke-width="1"/>
      <path id="Trazado_1778" data-name="Trazado 1778" d="M271.194,386.387H238.74V342.91h22.788l9.667,8.855Z" transform="translate(-79.934 -67.779)"/>
      <path id="Trazado_1779" data-name="Trazado 1779" d="M272.834,385.116H240.38V341.65h22.788l9.667,8.855Z" transform="translate(-79.673 -67.979)" fill="#fff" stroke="#263238" stroke-linecap="round" stroke-linejoin="round" stroke-width="1"/>
      <path id="Trazado_1780" data-name="Trazado 1780" d="M260.366,341.65l-2.376,10.4,12.043-1.542Z" transform="translate(-76.872 -67.979)" stroke="#263238" stroke-linecap="round" stroke-linejoin="round" stroke-width="1"/>
      <path id="Trazado_1781" data-name="Trazado 1781" d="M260.04,341.65v8.855h9.667Z" transform="translate(-76.546 -67.979)" fill="#fff" stroke="#263238" stroke-linecap="round" stroke-linejoin="round" stroke-width="1"/>
      <line id="Línea_161" data-name="Línea 161" x2="18.499" transform="translate(166.908 288.913)" fill="#fff" stroke="#263238" stroke-linecap="round" stroke-linejoin="round" stroke-width="1"/>
      <line id="Línea_162" data-name="Línea 162" x2="18.499" transform="translate(166.908 293.445)" fill="#fff" stroke="#263238" stroke-linecap="round" stroke-linejoin="round" stroke-width="1"/>
      <line id="Línea_163" data-name="Línea 163" x2="18.499" transform="translate(166.908 297.988)" fill="#fff" stroke="#263238" stroke-linecap="round" stroke-linejoin="round" stroke-width="1"/>
      <line id="Línea_164" data-name="Línea 164" x2="18.499" transform="translate(166.908 302.52)" fill="#fff" stroke="#263238" stroke-linecap="round" stroke-linejoin="round" stroke-width="1"/>
      <line id="Línea_165" data-name="Línea 165" x2="18.499" transform="translate(166.908 307.052)" fill="#fff" stroke="#263238" stroke-linecap="round" stroke-linejoin="round" stroke-width="1"/>
      <path id="Trazado_1782" data-name="Trazado 1782" d="M405.864,386.387H373.41V342.91H396.2l9.667,8.855Z" transform="translate(-58.511 -67.779)"/>
      <path id="Trazado_1783" data-name="Trazado 1783" d="M407.494,385.116H375.04V341.65h22.788l9.667,8.855Z" transform="translate(-58.251 -67.979)" fill="#fff" stroke="#263238" stroke-linecap="round" stroke-linejoin="round" stroke-width="1"/>
      <path id="Trazado_1784" data-name="Trazado 1784" d="M395.025,341.65l-2.365,10.4,12.031-1.542Z" transform="translate(-55.448 -67.979)" stroke="#263238" stroke-linecap="round" stroke-linejoin="round" stroke-width="1"/>
      <path id="Trazado_1785" data-name="Trazado 1785" d="M394.7,341.65v8.855h9.667Z" transform="translate(-55.124 -67.979)" fill="#fff" stroke="#263238" stroke-linecap="round" stroke-linejoin="round" stroke-width="1"/>
      <line id="Línea_166" data-name="Línea 166" x2="18.499" transform="translate(323.001 288.913)" fill="#fff" stroke="#263238" stroke-linecap="round" stroke-linejoin="round" stroke-width="1"/>
      <line id="Línea_167" data-name="Línea 167" x2="18.499" transform="translate(323.001 293.445)" fill="#fff" stroke="#263238" stroke-linecap="round" stroke-linejoin="round" stroke-width="1"/>
      <line id="Línea_168" data-name="Línea 168" x2="18.499" transform="translate(323.001 297.988)" fill="#fff" stroke="#263238" stroke-linecap="round" stroke-linejoin="round" stroke-width="1"/>
      <line id="Línea_169" data-name="Línea 169" x2="18.499" transform="translate(323.001 302.52)" fill="#fff" stroke="#263238" stroke-linecap="round" stroke-linejoin="round" stroke-width="1"/>
      <line id="Línea_170" data-name="Línea 170" x2="18.499" transform="translate(323.001 307.052)" fill="#fff" stroke="#263238" stroke-linecap="round" stroke-linejoin="round" stroke-width="1"/>
      <path id="Trazado_1786" data-name="Trazado 1786" d="M134.184,386.387H101.73V342.91h22.788l9.667,8.855Z" transform="translate(-101.73 -67.779)"/>
      <path id="Trazado_1787" data-name="Trazado 1787" d="M135.824,385.116H103.37V341.65h22.788l9.667,8.855Z" transform="translate(-101.469 -67.979)" fill="#fff" stroke="#263238" stroke-linecap="round" stroke-linejoin="round" stroke-width="1"/>
      <path id="Trazado_1788" data-name="Trazado 1788" d="M123.356,341.65l-2.376,10.4,12.043-1.542Z" transform="translate(-98.668 -67.979)" stroke="#263238" stroke-linecap="round" stroke-linejoin="round" stroke-width="1"/>
      <path id="Trazado_1789" data-name="Trazado 1789" d="M123.03,341.65v8.855H132.7Z" transform="translate(-98.342 -67.979)" fill="#fff" stroke="#263238" stroke-linecap="round" stroke-linejoin="round" stroke-width="1"/>
      <line id="Línea_171" data-name="Línea 171" x2="18.499" transform="translate(8.114 288.913)" fill="#fff" stroke="#263238" stroke-linecap="round" stroke-linejoin="round" stroke-width="1"/>
      <line id="Línea_172" data-name="Línea 172" x2="18.499" transform="translate(8.114 293.445)" fill="#fff" stroke="#263238" stroke-linecap="round" stroke-linejoin="round" stroke-width="1"/>
      <line id="Línea_173" data-name="Línea 173" x2="18.499" transform="translate(8.114 297.988)" fill="#fff" stroke="#263238" stroke-linecap="round" stroke-linejoin="round" stroke-width="1"/>
      <line id="Línea_174" data-name="Línea 174" x2="18.499" transform="translate(8.114 302.52)" fill="#fff" stroke="#263238" stroke-linecap="round" stroke-linejoin="round" stroke-width="1"/>
      <line id="Línea_175" data-name="Línea 175" x2="18.499" transform="translate(8.114 307.052)" fill="#fff" stroke="#263238" stroke-linecap="round" stroke-linejoin="round" stroke-width="1"/>
      <path id="Trazado_1790" data-name="Trazado 1790" d="M201.514,337.716H169.06V294.25h22.8l9.655,8.855Z" transform="translate(-91.019 -75.52)"/>
      <path id="Trazado_1791" data-name="Trazado 1791" d="M203.154,336.457H170.7V292.98h22.788l9.667,8.855Z" transform="translate(-90.758 -75.722)" fill="#145388" stroke="#263238" stroke-linecap="round" stroke-linejoin="round" stroke-width="1"/>
      <path id="Trazado_1792" data-name="Trazado 1792" d="M190.685,292.98l-2.365,10.4,12.031-1.542Z" transform="translate(-87.955 -75.722)" stroke="#263238" stroke-linecap="round" stroke-linejoin="round" stroke-width="1"/>
      <path id="Trazado_1793" data-name="Trazado 1793" d="M190.36,292.98v8.855h9.667Z" transform="translate(-87.631 -75.722)" fill="#fff" stroke="#263238" stroke-linecap="round" stroke-linejoin="round" stroke-width="1"/>
      <line id="Línea_176" data-name="Línea 176" x2="18.499" transform="translate(86.155 232.512)" fill="#fff" stroke="#263238" stroke-linecap="round" stroke-linejoin="round" stroke-width="1"/>
      <line id="Línea_177" data-name="Línea 177" x2="18.499" transform="translate(86.155 237.044)" fill="#fff" stroke="#263238" stroke-linecap="round" stroke-linejoin="round" stroke-width="1"/>
      <line id="Línea_178" data-name="Línea 178" x2="18.499" transform="translate(86.155 241.576)" fill="#fff" stroke="#263238" stroke-linecap="round" stroke-linejoin="round" stroke-width="1"/>
      <line id="Línea_179" data-name="Línea 179" x2="18.499" transform="translate(86.155 246.108)" fill="#fff" stroke="#263238" stroke-linecap="round" stroke-linejoin="round" stroke-width="1"/>
      <line id="Línea_180" data-name="Línea 180" x2="18.499" transform="translate(86.155 250.64)" fill="#fff" stroke="#263238" stroke-linecap="round" stroke-linejoin="round" stroke-width="1"/>
      <path id="Trazado_1794" data-name="Trazado 1794" d="M271.194,198.947H238.74V155.47h22.788l9.667,8.855Z" transform="translate(-79.934 -97.597)"/>
      <path id="Trazado_1795" data-name="Trazado 1795" d="M272.834,197.676H240.38V154.21h22.788l9.667,8.855Z" transform="translate(-79.673 -97.798)" fill="#fff" stroke="#263238" stroke-linecap="round" stroke-linejoin="round" stroke-width="1"/>
      <path id="Trazado_1796" data-name="Trazado 1796" d="M260.366,154.21l-2.376,10.4,12.043-1.542Z" transform="translate(-76.872 -97.798)" stroke="#263238" stroke-linecap="round" stroke-linejoin="round" stroke-width="1"/>
      <path id="Trazado_1797" data-name="Trazado 1797" d="M260.04,154.21v8.855h9.667Z" transform="translate(-76.546 -97.798)" fill="#fff" stroke="#263238" stroke-linecap="round" stroke-linejoin="round" stroke-width="1"/>
      <line id="Línea_181" data-name="Línea 181" x2="18.499" transform="translate(166.908 71.654)" fill="#fff" stroke="#263238" stroke-linecap="round" stroke-linejoin="round" stroke-width="1"/>
      <line id="Línea_182" data-name="Línea 182" x2="18.499" transform="translate(166.908 76.186)" fill="#fff" stroke="#263238" stroke-linecap="round" stroke-linejoin="round" stroke-width="1"/>
      <line id="Línea_183" data-name="Línea 183" x2="18.499" transform="translate(166.908 80.718)" fill="#fff" stroke="#263238" stroke-linecap="round" stroke-linejoin="round" stroke-width="1"/>
      <line id="Línea_184" data-name="Línea 184" x2="18.499" transform="translate(166.908 85.25)" fill="#fff" stroke="#263238" stroke-linecap="round" stroke-linejoin="round" stroke-width="1"/>
      <line id="Línea_185" data-name="Línea 185" x2="18.499" transform="translate(166.908 89.794)" fill="#fff" stroke="#263238" stroke-linecap="round" stroke-linejoin="round" stroke-width="1"/>
      <path id="Trazado_1798" data-name="Trazado 1798" d="M338.524,150.276H306.07V106.81h22.8l9.655,8.844Z" transform="translate(-69.223 -105.338)"/>
      <path id="Trazado_1799" data-name="Trazado 1799" d="M340.164,149.017H307.71V105.54H330.5l9.667,8.855Z" transform="translate(-68.962 -105.54)" fill="#fff" stroke="#263238" stroke-linecap="round" stroke-linejoin="round" stroke-width="1"/>
      <path id="Trazado_1800" data-name="Trazado 1800" d="M327.695,105.54l-2.365,10.4,12.031-1.542Z" transform="translate(-66.159 -105.54)" stroke="#263238" stroke-linecap="round" stroke-linejoin="round" stroke-width="1"/>
      <path id="Trazado_1801" data-name="Trazado 1801" d="M327.37,105.54V114.4h9.667Z" transform="translate(-65.835 -105.54)" fill="#fff" stroke="#263238" stroke-linecap="round" stroke-linejoin="round" stroke-width="1"/>
      <line id="Línea_186" data-name="Línea 186" x2="18.499" transform="translate(244.96 15.242)" fill="#fff" stroke="#263238" stroke-linecap="round" stroke-linejoin="round" stroke-width="1"/>
      <line id="Línea_187" data-name="Línea 187" x2="18.499" transform="translate(244.96 19.786)" fill="#fff" stroke="#263238" stroke-linecap="round" stroke-linejoin="round" stroke-width="1"/>
      <line id="Línea_188" data-name="Línea 188" x2="18.499" transform="translate(244.96 24.318)" fill="#fff" stroke="#263238" stroke-linecap="round" stroke-linejoin="round" stroke-width="1"/>
      <line id="Línea_189" data-name="Línea 189" x2="18.499" transform="translate(244.96 28.85)" fill="#fff" stroke="#263238" stroke-linecap="round" stroke-linejoin="round" stroke-width="1"/>
      <line id="Línea_190" data-name="Línea 190" x2="18.499" transform="translate(244.96 33.382)" fill="#fff" stroke="#263238" stroke-linecap="round" stroke-linejoin="round" stroke-width="1"/>
      <path id="Trazado_1802" data-name="Trazado 1802" d="M405.864,198.947H373.41V155.47H396.2l9.667,8.855Z" transform="translate(-58.511 -97.597)"/>
      <path id="Trazado_1803" data-name="Trazado 1803" d="M407.494,197.676H375.04V154.21h22.788l9.667,8.855Z" transform="translate(-58.251 -97.798)" fill="#145388" stroke="#263238" stroke-linecap="round" stroke-linejoin="round" stroke-width="1"/>
      <path id="Trazado_1804" data-name="Trazado 1804" d="M395.025,154.21l-2.365,10.4,12.031-1.542Z" transform="translate(-55.448 -97.798)" stroke="#263238" stroke-linecap="round" stroke-linejoin="round" stroke-width="1"/>
      <path id="Trazado_1805" data-name="Trazado 1805" d="M394.7,154.21v8.855h9.667Z" transform="translate(-55.124 -97.798)" fill="#fff" stroke="#263238" stroke-linecap="round" stroke-linejoin="round" stroke-width="1"/>
      <line id="Línea_191" data-name="Línea 191" x2="18.499" transform="translate(323.001 71.654)" fill="#fff" stroke="#263238" stroke-linecap="round" stroke-linejoin="round" stroke-width="1"/>
      <line id="Línea_192" data-name="Línea 192" x2="18.499" transform="translate(323.001 76.186)" fill="#fff" stroke="#263238" stroke-linecap="round" stroke-linejoin="round" stroke-width="1"/>
      <line id="Línea_193" data-name="Línea 193" x2="18.499" transform="translate(323.001 80.718)" fill="#fff" stroke="#263238" stroke-linecap="round" stroke-linejoin="round" stroke-width="1"/>
      <line id="Línea_194" data-name="Línea 194" x2="18.499" transform="translate(323.001 85.25)" fill="#fff" stroke="#263238" stroke-linecap="round" stroke-linejoin="round" stroke-width="1"/>
      <line id="Línea_195" data-name="Línea 195" x2="18.499" transform="translate(323.001 89.794)" fill="#fff" stroke="#263238" stroke-linecap="round" stroke-linejoin="round" stroke-width="1"/>
      <path id="Trazado_1806" data-name="Trazado 1806" d="M134.184,198.947H101.73V155.47h22.788l9.667,8.855Z" transform="translate(-101.73 -97.597)"/>
      <path id="Trazado_1807" data-name="Trazado 1807" d="M135.824,197.676H103.37V154.21h22.788l9.667,8.855Z" transform="translate(-101.469 -97.798)" fill="#fff" stroke="#263238" stroke-linecap="round" stroke-linejoin="round" stroke-width="1"/>
      <path id="Trazado_1808" data-name="Trazado 1808" d="M123.356,154.21l-2.376,10.4,12.043-1.542Z" transform="translate(-98.668 -97.798)" stroke="#263238" stroke-linecap="round" stroke-linejoin="round" stroke-width="1"/>
      <path id="Trazado_1809" data-name="Trazado 1809" d="M123.03,154.21v8.855H132.7Z" transform="translate(-98.342 -97.798)" fill="#fff" stroke="#263238" stroke-linecap="round" stroke-linejoin="round" stroke-width="1"/>
      <line id="Línea_196" data-name="Línea 196" x2="18.499" transform="translate(8.114 71.654)" fill="#fff" stroke="#263238" stroke-linecap="round" stroke-linejoin="round" stroke-width="1"/>
      <line id="Línea_197" data-name="Línea 197" x2="18.499" transform="translate(8.114 76.186)" fill="#fff" stroke="#263238" stroke-linecap="round" stroke-linejoin="round" stroke-width="1"/>
      <line id="Línea_198" data-name="Línea 198" x2="18.499" transform="translate(8.114 80.718)" fill="#fff" stroke="#263238" stroke-linecap="round" stroke-linejoin="round" stroke-width="1"/>
      <line id="Línea_199" data-name="Línea 199" x2="18.499" transform="translate(8.114 85.25)" fill="#fff" stroke="#263238" stroke-linecap="round" stroke-linejoin="round" stroke-width="1"/>
      <line id="Línea_200" data-name="Línea 200" x2="18.499" transform="translate(8.114 89.794)" fill="#fff" stroke="#263238" stroke-linecap="round" stroke-linejoin="round" stroke-width="1"/>
    </g>
    <g id="freepik--character-2--inject-96" transform="translate(293.955 195.822)">
      <ellipse id="Elipse_87" data-name="Elipse 87" cx="57.653" cy="11.081" rx="57.653" ry="11.081" transform="translate(10.18 208.345)" fill="#145388"/>
      <ellipse id="Elipse_88" data-name="Elipse 88" cx="57.653" cy="11.081" rx="57.653" ry="11.081" transform="translate(10.18 208.345)" fill="#fff" opacity="0.5"/>
      <path id="Trazado_1810" data-name="Trazado 1810" d="M283.451,239.405a.823.823,0,0,1-.255.174.985.985,0,0,1-1.31-.475l-2.318-4.88a1,1,0,0,1,1.8-.846l2.318,4.88A.985.985,0,0,1,283.451,239.405Z" transform="translate(-259.351 -171.912)" fill="#fff" stroke="#263238" stroke-miterlimit="10" stroke-width="1"/>
      <path id="Trazado_1811" data-name="Trazado 1811" d="M284.742,250.094a13.516,13.516,0,0,1,6.769,2.944c3.245,2.654,10.316,6.189,19.461,8.253s11.487,2.318,11.487,2.318l-2.318-12.669s-12.97.29-18.545-.591-12.089-5.888-15.068-8.542S284.742,250.094,284.742,250.094Z" transform="translate(-258.556 -170.558)" fill="#145388" stroke="#263238" stroke-miterlimit="10" stroke-width="1"/>
      <path id="Trazado_1812" data-name="Trazado 1812" d="M289.358,251.412a1.748,1.748,0,0,1-.371.255,1.5,1.5,0,0,1-1.982-.707l-5.8-12.228a1.488,1.488,0,1,1,2.689-1.275l5.8,12.228A1.507,1.507,0,0,1,289.358,251.412Z" transform="translate(-259.103 -171.32)" fill="#fff" stroke="#263238" stroke-miterlimit="10" stroke-width="1"/>
      <path id="Trazado_1813" data-name="Trazado 1813" d="M288.13,235.169a15.474,15.474,0,1,1,.788-21.872,15.474,15.474,0,0,1-.788,21.872Zm-19.055-20.493a12.506,12.506,0,1,0,17.664.637A12.506,12.506,0,0,0,269.075,214.676Z" transform="translate(-262.117 -175.812)"/>
      <path id="Trazado_1814" data-name="Trazado 1814" d="M286.579,238.778s1.611-.858,2.318.464,2.457,4.068,2.121,5.065-2.214,1.159-3.13.128a19.241,19.241,0,0,1-2.179-4.265Z" transform="translate(-258.364 -171.018)" fill="#fff" stroke="#263238" stroke-miterlimit="10" stroke-width="1"/>
      <path id="Trazado_1815" data-name="Trazado 1815" d="M281.254,240.71l6.189-1.97a1.785,1.785,0,0,1,.811,1.3c.128.927,2.735,6.085,2.446,7.383s-5.946,3.674-6.514,2.967-3.906-8.763-3.906-8.763S280.188,241.012,281.254,240.71Z" transform="translate(-259.228 -170.98)" fill="#fff" stroke="#263238" stroke-miterlimit="10" stroke-width="1"/>
      <line id="Línea_201" data-name="Línea 201" x1="5.587" y2="1.739" transform="translate(23.567 69.985)" fill="none" stroke="#263238" stroke-linecap="round" stroke-miterlimit="10" stroke-width="1"/>
      <line id="Línea_202" data-name="Línea 202" x1="5.088" y2="1.97" transform="translate(24.877 72.396)" fill="none" stroke="#263238" stroke-linecap="round" stroke-miterlimit="10" stroke-width="1"/>
      <line id="Línea_203" data-name="Línea 203" x1="4.822" y2="2.724" transform="translate(26.082 74.633)" fill="none" stroke="#263238" stroke-linecap="round" stroke-miterlimit="10" stroke-width="1"/>
      <path id="Trazado_1816" data-name="Trazado 1816" d="M312.207,220.837s-5.019,9.423-5.6,18.858,7.951,10.606,9.134,11.487,5.6,38.018,5.6,38.018-30.947,39.791-30.947,44.207S286,381.185,286,381.185l6.479.3s9.748-27.447,12.066-33.915,3.234-16.505,3.234-16.505l28.595-26.821s3.234,26.23,6.19,31.828,23.274,45.981,23.274,45.981a31.3,31.3,0,0,0,5.309.881,9.2,9.2,0,0,0,3.535-.881L357.3,332.213s.881-45.39-2.944-52.761-13.561-17.977-13.561-17.977-8.253-34.181-9.435-39.49-7.951-9.725-11.2-9.725S312.207,220.837,312.207,220.837Z" transform="translate(-258.318 -175.193)" fill="#145388" stroke="#263238" stroke-miterlimit="10" stroke-width="1"/>
      <path id="Trazado_1817" data-name="Trazado 1817" d="M304,215.615l4.126,6.479s-2.318,10.026-.29,7.673,5.3-10.907,7.07-12.68a9.957,9.957,0,0,0,2.318-4.126L308.451,208Z" transform="translate(-255.455 -175.87)" fill="#fff" stroke="#263238" stroke-miterlimit="10" stroke-width="1"/>
      <path id="Trazado_1818" data-name="Trazado 1818" d="M288.22,196.069s-.522,5.413,1.24,8.114,2.318,3.535,1.773,5.3-3.245,1.773-2.654,3.245,3.837,2.063,3.837,2.063,3.535,8.253,6.769,8.253,11.521-8.114,12.692-11.069-10.919-10.745-12.982-12.506S290.573,192.824,288.22,196.069Z" transform="translate(-257.977 -177.941)" fill="#fff" stroke="#263238" stroke-miterlimit="10" stroke-width="1"/>
      <path id="Trazado_1819" data-name="Trazado 1819" d="M294.682,204.992c.325.985.22,1.912-.243,2.063s-1.159-.522-1.426-1.507-.232-1.912.232-2.075S294.346,203.995,294.682,204.992Z" transform="translate(-257.229 -176.594)"/>
      <path id="Trazado_1820" data-name="Trazado 1820" d="M293.65,213.285s2.851,0,3.8-4.115" transform="translate(-257.101 -175.684)" fill="none" stroke="#263238" stroke-linecap="round" stroke-miterlimit="10" stroke-width="1"/>
      <path id="Trazado_1821" data-name="Trazado 1821" d="M290.678,184.661h-6.1c-3.918,0-4.347,7.824,3.918,16.529s24.793,19.136,34.367,19.136,17.838,2.608,21.316,12.182,9.134,18.267,26.1,14.79,21.315-26.531,9.134-46.108-28.282-16.1-36.546-12.182-22.185,5.216-24.793,0-8.774-8.728-15.3-8.728S290.678,184.661,290.678,184.661Z" transform="translate(-258.974 -180.28)"/>
      <path id="Trazado_1822" data-name="Trazado 1822" d="M374.681,375.208,357.3,325.368s.881-45.39-2.944-52.761c-3.292-6.317-10.9-15-12.993-17.386l-22.614,6.7c1.345,9.968,2.6,20.458,2.6,20.458s-30.947,39.791-30.947,44.207S286,374.35,286,374.35l6.479.3s9.748-27.447,12.066-33.915,3.234-16.505,3.234-16.505l28.595-26.821s3.234,26.23,6.19,31.828,23.274,45.981,23.274,45.981a31.3,31.3,0,0,0,5.309.881,9.2,9.2,0,0,0,3.535-.893Z" transform="translate(-258.318 -168.358)" stroke="#263238" stroke-miterlimit="10" stroke-width="1"/>
      <path id="Trazado_1823" data-name="Trazado 1823" d="M320.217,219.931a5.506,5.506,0,0,0-6.491,3.535c-1.762,4.717,5.6,8.844,11.2,15.068s21.814,18.858,21.814,18.858l9.435,30.067,4.416-.892s-5.935-34.216-5.935-35.1-24.746-25.349-25.639-26.23-4.416-4.717-4.416-4.717" transform="translate(-253.95 -173.997)" fill="#145388" stroke="#263238" stroke-miterlimit="10" stroke-width="1"/>
      <path id="Trazado_1824" data-name="Trazado 1824" d="M350.553,278.261l-1.773,7.662,2.944,5.6s2.318.881,2.956-.3l.58-1.159s2.956-.3,3.245-2.956-3.535-9.725-3.535-9.725Z" transform="translate(-248.331 -164.833)" fill="#fff" stroke="#263238" stroke-miterlimit="10" stroke-width="1"/>
      <path id="Trazado_1825" data-name="Trazado 1825" d="M288.07,358S273.628,368.617,273,370.379s19.449-2.944,21.223-3.245.29-8.832.29-8.832Z" transform="translate(-260.388 -152.008)" fill="#145388" stroke="#263238" stroke-miterlimit="10" stroke-width="1"/>
      <path id="Trazado_1826" data-name="Trazado 1826" d="M274.484,367.775a6.409,6.409,0,0,0-1.472,1.669c-.591,1.773,19.449-2.944,21.223-3.245.6-.093.823-1.159.858-2.538Z" transform="translate(-260.386 -151.108)" fill="#fff" stroke="#263238" stroke-miterlimit="10" stroke-width="1"/>
      <path id="Trazado_1827" data-name="Trazado 1827" d="M356.353,358.754s-12.078,2.063-10.606,3.825A12.541,12.541,0,0,0,354,366.057c2.944,0,4.126.881,6.781,2.318s4.416,1.472,5.3-.892-.881-8.832-.881-8.832S358.126,360.215,356.353,358.754Z" transform="translate(-248.833 -151.905)" fill="#145388" stroke="#263238" stroke-miterlimit="10" stroke-width="1"/>
      <path id="Trazado_1828" data-name="Trazado 1828" d="M360.781,368.1c2.643,1.472,4.416,1.472,5.3-.892a3.292,3.292,0,0,0,.185-.835c-4.393,2.214-8.438-3.048-12.124-3.048-2.318,0-5.552-1.287-7.7-2.318-.7.394-1.02.788-.7,1.159A12.541,12.541,0,0,0,354,365.646C356.944,365.739,358.126,366.62,360.781,368.1Z" transform="translate(-248.834 -151.529)" fill="#fff" stroke="#263238" stroke-miterlimit="10" stroke-width="1"/>
      <path id="Trazado_1829" data-name="Trazado 1829" d="M296.59,196.44c2.318,4.636,5.668,10.165,9.539,12.425" transform="translate(-256.634 -177.709)" fill="none" stroke="#fff" stroke-miterlimit="10" stroke-width="0.75"/>
      <path id="Trazado_1830" data-name="Trazado 1830" d="M293.74,189.75s.522,1.518,1.472,3.755" transform="translate(-257.087 -178.773)" fill="none" stroke="#fff" stroke-miterlimit="10" stroke-width="0.75"/>
      <path id="Trazado_1831" data-name="Trazado 1831" d="M366.31,204.68a14.373,14.373,0,0,1,2.712,2.875" transform="translate(-245.542 -176.398)" fill="none" stroke="#fff" stroke-linecap="round" stroke-miterlimit="10" stroke-width="0.75"/>
      <path id="Trazado_1832" data-name="Trazado 1832" d="M287.23,188.52s4.08,13.909,17.734,20.377,19.16,5.1,36.476-2.434c13.26-5.8,26.288-5.448,34.32-1.24" transform="translate(-258.122 -178.969)" fill="none" stroke="#fff" stroke-linecap="round" stroke-miterlimit="10" stroke-width="0.75"/>
      <path id="Trazado_1833" data-name="Trazado 1833" d="M345.431,228.771c-.22-4.486,4.37-3.837,4.9-3.663" transform="translate(-248.865 -173.17)" fill="none" stroke="#fff" stroke-linecap="round" stroke-miterlimit="10" stroke-width="0.75"/>
      <path id="Trazado_1834" data-name="Trazado 1834" d="M325.57,207.681s7.951-1.426,23.437-1.229,25.071,16.111,22.023,25.685c-2.8,8.786-17.27,8.832-21.211,3.477" transform="translate(-252.023 -176.119)" fill="none" stroke="#fff" stroke-linecap="round" stroke-miterlimit="10" stroke-width="0.75"/>
    </g>
    <g id="freepik--character-1--inject-96" transform="translate(105.056 82.584)">
      <ellipse id="Elipse_89" data-name="Elipse 89" cx="57.653" cy="11.081" rx="57.653" ry="11.081" transform="translate(39.531 186.272)" fill="#145388"/>
      <ellipse id="Elipse_90" data-name="Elipse 90" cx="57.653" cy="11.081" rx="57.653" ry="11.081" transform="translate(39.531 186.272)" fill="#fff" opacity="0.5"/>
      <path id="Trazado_1835" data-name="Trazado 1835" d="M207.681,102.5V93.023c0-3.686,5.251-10.107,13.19-10.432s20.863,10.061,18.8,15.624-5.03,2.318-5.03,2.318,2.121,2.388-.788,3.709-4.926-4.115-4.926-4.115-3.976-3.709-7.685-3.709-2.643.267-5.3,3.964-5.03,2.654-5.03,3.976,1.855,3.477-1.055,3.477S207.681,102.5,207.681,102.5Z" transform="translate(-81.891 -82.584)" stroke="#263238" stroke-miterlimit="10" stroke-width="1"/>
      <path id="Trazado_1836" data-name="Trazado 1836" d="M111.368,211.706s-8.658-2.469-9.9-1.727-2.724,19.809-2.225,21.536,8.114-12.877,8.114-12.877l3.709-.487Z" transform="translate(-99.145 -62.339)" fill="#145388" stroke="#263238" stroke-miterlimit="10" stroke-width="1"/>
      <path id="Trazado_1837" data-name="Trazado 1837" d="M102.767,209.854a2.6,2.6,0,0,0-1.3.128c-1.24.742-2.724,19.809-2.225,21.536.116.406.626-.093,1.345-1.09Z" transform="translate(-99.145 -62.342)" fill="#fff" stroke="#263238" stroke-miterlimit="10" stroke-width="1"/>
      <path id="Trazado_1838" data-name="Trazado 1838" d="M181.285,157.2a64.422,64.422,0,0,0-5.946,10.432c-2.225,5.193-4.706,10.64-4.706,10.64l-14.6,32.188s-27.238,6.444-30.7,7.43-15.6,2.225-15.6,2.225l-.243,6.444s33.915.985,41.843.985,9.412,1.484,12.379-.742,25-39.7,25-39.7l8.67-.487s24.515,28.224,26.5,31.191,8.658,22.776,12.124,29.22a62.96,62.96,0,0,0,7.43,10.884l5.448-6.189s-11.591-37.38-13.121-45.308S214.458,173,214.458,173l1.982-13.121S184.5,160.909,181.285,157.2Z" transform="translate(-97.5 -70.714)" stroke="#263238" stroke-miterlimit="10" stroke-width="1"/>
      <path id="Trazado_1839" data-name="Trazado 1839" d="M214.633,114.45s-17.954-1.032-20.539-.858-5.007.51-5.343,2.063-18.29,47.963-18.29,51.069,10,7.256,19.322,7.256a27.447,27.447,0,0,0,16.563-5.7c.858-.684,24.155-44.335,24.677-45.378s.336-2.585-1.379-4.138S214.633,114.45,214.633,114.45Z" transform="translate(-87.8 -77.654)" fill="#145388" stroke="#263238" stroke-miterlimit="10" stroke-width="1"/>
      <path id="Trazado_1840" data-name="Trazado 1840" d="M210.928,112.009s-4.636,1.032-5.865,2.585-4.833,15.532-4.833,15.532l9.273-1.9,5.343,8.114s3.628-11.73,3.8-16.737S213.513,111.43,210.928,112.009Z" transform="translate(-83.064 -77.913)" fill="#145388" stroke="#263238" stroke-miterlimit="10" stroke-width="1"/>
      <path id="Trazado_1841" data-name="Trazado 1841" d="M191.716,114.26a67.122,67.122,0,0,0-14.6,6.433c-6.2,3.964-24.271,14.859-24.271,14.859l11.591,2.967,21.292-8.415S190.232,120.693,191.716,114.26Z" transform="translate(-90.603 -77.544)" fill="#145388" stroke="#263238" stroke-miterlimit="10" stroke-width="1"/>
      <path id="Trazado_1842" data-name="Trazado 1842" d="M187.031,135.512s-11.394-1.24-16.6-2.724-10.142-4.462-15.346-1.24-4.706,6.954-1.484,9.412,21.791.243,25.5,0a13.33,13.33,0,0,0,6.189-1.982Z" transform="translate(-90.868 -75.024)" fill="#145388" stroke="#263238" stroke-miterlimit="10" stroke-width="1"/>
      <path id="Trazado_1843" data-name="Trazado 1843" d="M180.048,135.577s11.382-4.207,12.124-4.207,2.237,0,2.48,1.727,1.24,5.946.243,6.189-6.189,2.237-7.43,2.237a7.638,7.638,0,0,1-2.469-.5,5.853,5.853,0,0,1-5.691-.985C176.583,137.78,178.553,136.3,180.048,135.577Z" transform="translate(-86.608 -74.823)" fill="#fff" stroke="#263238" stroke-miterlimit="10" stroke-width="1"/>
      <line id="Línea_204" data-name="Línea 204" x1="0.997" y1="2.967" transform="translate(97.392 63.212)" fill="none" stroke="#263238" stroke-miterlimit="10" stroke-width="1"/>
      <line id="Línea_205" data-name="Línea 205" x2="1.727" y2="6.433" transform="translate(101.611 59.747)" fill="none" stroke="#263238" stroke-linecap="round" stroke-miterlimit="10" stroke-width="1"/>
      <line id="Línea_206" data-name="Línea 206" x2="1.727" y2="6.676" transform="translate(104.579 57.764)" fill="none" stroke="#263238" stroke-linecap="round" stroke-miterlimit="10" stroke-width="1"/>
      <line id="Línea_207" data-name="Línea 207" x2="1.727" y2="5.703" transform="translate(99.131 60.975)" fill="none" stroke="#263238" stroke-linecap="round" stroke-miterlimit="10" stroke-width="1"/>
      <path id="Trazado_1844" data-name="Trazado 1844" d="M222.667,118.69a22.788,22.788,0,0,1,5.471,7.488c2.654,5.309,10.432,22.324,10.432,22.324s2.492,5.8-2.654,7.65-5.8-3.118-7.963-5.934-10.142-17.328-10.142-17.328Z" transform="translate(-80.267 -76.84)" fill="#145388" stroke="#263238" stroke-miterlimit="10" stroke-width="1"/>
      <path id="Trazado_1845" data-name="Trazado 1845" d="M227,143.6a8.114,8.114,0,0,1,6.4-1.866c4.057.464,5.471,6.711,3.906,9.991s-5.8,4.52-7.186,3.895S224.2,152.487,227,143.6Z" transform="translate(-78.948 -73.187)" fill="#145388" stroke="#263238" stroke-miterlimit="10" stroke-width="1"/>
      <path id="Trazado_1846" data-name="Trazado 1846" d="M228.685,143.6a.846.846,0,0,1-.29,0,.985.985,0,0,1-.649-1.24l1.623-5.158a.974.974,0,0,1,1.24-.638.985.985,0,0,1,.649,1.24l-1.623,5.158A1.008,1.008,0,0,1,228.685,143.6Z" transform="translate(-78.694 -74.004)" fill="#fff" stroke="#263238" stroke-miterlimit="10" stroke-width="1"/>
      <path id="Trazado_1847" data-name="Trazado 1847" d="M225.2,156.385a1.4,1.4,0,0,1-.44-.07,1.5,1.5,0,0,1-.974-1.866l4.068-12.924a1.484,1.484,0,0,1,2.828.892l-4.068,12.924a1.472,1.472,0,0,1-1.414,1.043Z" transform="translate(-79.327 -73.365)" fill="#fff" stroke="#263238" stroke-miterlimit="10" stroke-width="1"/>
      <path id="Trazado_1848" data-name="Trazado 1848" d="M236.674,142.857a15.474,15.474,0,1,1,15.474-15.474A15.474,15.474,0,0,1,236.674,142.857Zm0-27.98a12.506,12.506,0,1,0,12.495,12.506,12.506,12.506,0,0,0-12.495-12.506Z" transform="translate(-79.728 -77.918)"/>
      <path id="Trazado_1849" data-name="Trazado 1849" d="M225.776,142.279s-1.727-.626-2.191.777-1.878,4.37-1.4,5.309,2.318.777,3.118-.313a19.509,19.509,0,0,0,1.565-4.532Z" transform="translate(-79.587 -73.109)" fill="#fff" stroke="#263238" stroke-miterlimit="10" stroke-width="1"/>
      <path id="Trazado_1850" data-name="Trazado 1850" d="M231.958,143.35l-6.4-1.09a1.8,1.8,0,0,0-.626,1.4c0,.939-1.878,6.4-1.414,7.65s6.41,2.8,6.873,2.028,2.654-9.215,2.654-9.215S233.048,143.5,231.958,143.35Z" transform="translate(-79.37 -73.09)" fill="#fff" stroke="#263238" stroke-miterlimit="10" stroke-width="1"/>
      <line id="Línea_208" data-name="Línea 208" x2="5.772" y2="0.927" transform="translate(145.564 71.511)" fill="none" stroke="#263238" stroke-linecap="round" stroke-miterlimit="10" stroke-width="1"/>
      <line id="Línea_209" data-name="Línea 209" x2="5.309" y2="1.252" transform="translate(145.089 74.003)" fill="none" stroke="#263238" stroke-linecap="round" stroke-miterlimit="10" stroke-width="1"/>
      <line id="Línea_210" data-name="Línea 210" x2="5.158" y2="2.028" transform="translate(144.463 76.345)" fill="none" stroke="#263238" stroke-linecap="round" stroke-miterlimit="10" stroke-width="1"/>
      <path id="Trazado_1851" data-name="Trazado 1851" d="M209.307,108.929s-2.237,8.971-2.237,12.947,0,7.244,1.379,6.954,6.039-9.273,6.9-12.75S213.12,105.823,209.307,108.929Z" transform="translate(-81.976 -78.519)" fill="#fff" stroke="#263238" stroke-miterlimit="10" stroke-width="1"/>
      <path id="Trazado_1852" data-name="Trazado 1852" d="M209.163,101.591s-1.855-3.176-2.909-1.066-2.121,7.152-.533,8.739,2.121-.788,2.121-.788.267,7.152,2.909,9.794,5.564,3.976,9.806,2.121,9.528-9.539,11.116-14.825a48.2,48.2,0,0,0,1.855-7.951s-1.055-4.231-7.152-5.564-12.437,1.066-12.437,3.709,1.321,2.921-.267,3.709a6.549,6.549,0,0,1-2.654.8S209.963,105.822,209.163,101.591Z" transform="translate(-82.319 -81.138)" fill="#fff" stroke="#263238" stroke-miterlimit="10" stroke-width="1"/>
      <path id="Trazado_1853" data-name="Trazado 1853" d="M223.32,105.258c-.267.927-.8,1.576-1.159,1.46s-.5-.95-.232-1.866.8-1.576,1.159-1.46S223.587,104.331,223.32,105.258Z" transform="translate(-79.634 -79.275)"/>
      <line id="Línea_211" data-name="Línea 211" x2="3.79" y2="2.307" transform="translate(134.077 22.47)" fill="none" stroke="#263238" stroke-linecap="round" stroke-miterlimit="10" stroke-width="1"/>
      <path id="Trazado_1854" data-name="Trazado 1854" d="M222.21,101.252s2.631-2.469,3.477.5" transform="translate(-79.567 -79.767)" fill="none" stroke="#263238" stroke-linecap="round" stroke-miterlimit="10" stroke-width="1"/>
      <path id="Trazado_1855" data-name="Trazado 1855" d="M219.578,101.226s-.5-3.628-3.628-2.643" transform="translate(-80.563 -80.065)" fill="none" stroke="#263238" stroke-linecap="round" stroke-miterlimit="10" stroke-width="1"/>
      <path id="Trazado_1856" data-name="Trazado 1856" d="M222.108,103.39a4.636,4.636,0,0,0-1.82,3.3c0,1.97,1.646,3.79.162,4.115s-3.79-1.31-3.79-1.31" transform="translate(-80.45 -79.274)" fill="none" stroke="#263238" stroke-linecap="round" stroke-miterlimit="10" stroke-width="1"/>
      <path id="Trazado_1857" data-name="Trazado 1857" d="M218.455,112.549s-4.289.661-4.775-2.469" transform="translate(-80.924 -78.209)" fill="none" stroke="#263238" stroke-linecap="round" stroke-miterlimit="10" stroke-width="1"/>
      <path id="Trazado_1858" data-name="Trazado 1858" d="M225,245.28s2.48,6.954,4.207,6.954,15.6-13.619,16.1-15.068-12.877,3.477-12.877,3.477l-1.982-1.5Z" transform="translate(-79.123 -58.035)" fill="#145388" stroke="#263238" stroke-miterlimit="10" stroke-width="1"/>
      <path id="Trazado_1859" data-name="Trazado 1859" d="M242.149,237.267,227.66,251.408c.406.487.8.823,1.159.823,1.739,0,15.6-13.619,16.1-15.068C245.081,236.653,243.876,236.827,242.149,237.267Z" transform="translate(-78.7 -58.042)" fill="#fff" stroke="#263238" stroke-miterlimit="10" stroke-width="1"/>
    </g>
  </g>
</svg>
