<svg id="Art" xmlns="http://www.w3.org/2000/svg" width="122.39" height="123.942" viewBox="0 0 122.39 123.942">
  <path id="Trazado_5" data-name="Trazado 5" d="M64.232,3.915C33.809,48.484,60.756,9.007,30.36,53.577a18.647,18.647,0,0,1,15.629,9.916L73.151,9.169a5.2,5.2,0,0,0-8.919-5.255Z" transform="translate(48.754 0.361)"/>
  <path id="Trazado_6" data-name="Trazado 6" d="M26.848,29.151c-4.042,6.252.539,23.5.539,23.5s18.027-2.695,22.1-8.838A13.484,13.484,0,0,0,26.848,29.151Z" transform="translate(39.978 36.319)"/>
  <ellipse id="Elipse_1" data-name="Elipse 1" cx="5.389" cy="5.389" rx="5.389" ry="5.389" transform="translate(40.419 97.052)"/>
  <path id="Trazado_7" data-name="Trazado 7" d="M82.378,100.73c-4.635,0-9.889.566-12.934-5.389l-5.066.728c-4.365-16.653-7.922-34.195,8.434-39.908L97.306,20.133C71.68-21.068-3.231,8.546,1.188,67.747A62.138,62.138,0,0,0,86.2,120.481a10.267,10.267,0,0,0-3.826-19.752ZM27.946,30.669A13.473,13.473,0,1,1,14.473,44.142,13.473,13.473,0,0,1,27.946,30.669ZM22.556,89.951A10.779,10.779,0,1,1,33.335,79.173,10.779,10.779,0,0,1,22.556,89.951ZM46.808,114.2a10.779,10.779,0,1,1,10.779-10.779A10.779,10.779,0,0,1,46.808,114.2ZM49.5,22.585A13.473,13.473,0,1,1,62.976,36.058,13.473,13.473,0,0,1,49.5,22.585Z" transform="translate(-1 -0.983)"/>
  <ellipse id="Elipse_2" data-name="Elipse 2" cx="8.084" cy="8.084" rx="8.084" ry="8.084" transform="translate(18.861 35.075)"/>
  <ellipse id="Elipse_3" data-name="Elipse 3" cx="8.084" cy="8.084" rx="8.084" ry="8.084" transform="translate(53.892 13.518)"/>
  <ellipse id="Elipse_4" data-name="Elipse 4" cx="5.389" cy="5.389" rx="5.389" ry="5.389" transform="translate(16.167 72.8)"/>
</svg>
