<svg id="Chemistry" xmlns="http://www.w3.org/2000/svg" width="123.937" height="124.05" viewBox="0 0 123.937 124.05">
  <path id="Trazado_50" data-name="Trazado 50" d="M31.144,71.354c7.41,2.964,15.818-1.94,21.557-7.41a29.991,29.991,0,0,0-10.078-8.6V14.389a2.695,2.695,0,1,0,0-5.389H15.677a2.695,2.695,0,1,0,0,5.389V55.348A29.641,29.641,0,0,0,1.88,70.168a50.336,50.336,0,0,1,29.264,1.186ZM26.455,38.641a2.695,2.695,0,1,1,2.695-2.695A2.695,2.695,0,0,1,26.455,38.641Zm5.389,16.168a2.695,2.695,0,1,1,2.695-2.695A2.695,2.695,0,0,1,31.844,54.809Zm0-32.336a2.695,2.695,0,1,1,2.695-2.695A2.695,2.695,0,0,1,31.844,22.473Z" transform="translate(0.485 12.557)"/>
  <path id="Trazado_51" data-name="Trazado 51" d="M57.206,31.13C54.889,33.2,42.817,43.741,30.637,38.864S4.445,37.84,1.535,38.7A29.641,29.641,0,1,0,57.206,31.13Z" transform="translate(-1.002 50.059)"/>
  <path id="Trazado_52" data-name="Trazado 52" d="M24.69,69.279c24.764-4.042,25.33,10.455,43.438-2.991L60.556,49.42V14.389a2.695,2.695,0,0,0,0-5.389H33.609a2.695,2.695,0,1,0,0,5.389V49.42Zm17-46.806a2.695,2.695,0,1,1,2.695,2.695A2.695,2.695,0,0,1,41.693,22.473Zm5.389,24.252a2.695,2.695,0,1,1,2.695-2.695A2.695,2.695,0,0,1,47.082,46.725Z" transform="translate(39.14 12.557)"/>
  <path id="Trazado_53" data-name="Trazado 53" d="M92.434,62.822C78.475,31.753,78.96,32.13,78.61,32.13c-4.9,3.611-14.12,8.731-23.309,5.039A43.114,43.114,0,0,0,32.99,35.5a35.03,35.03,0,0,1-13.15,35.03C22.535,72.9,19.193,72.2,86.371,72.2a6.656,6.656,0,0,0,6.063-9.377Z" transform="translate(30.921 51.754)"/>
  <path id="Trazado_54" data-name="Trazado 54" d="M11.695,8.389A2.695,2.695,0,1,0,9,5.695,2.695,2.695,0,0,0,11.695,8.389Z" transform="translate(12.551 2.389)"/>
  <path id="Trazado_55" data-name="Trazado 55" d="M14.695,11.389A2.695,2.695,0,1,0,12,8.695,2.695,2.695,0,0,0,14.695,11.389Z" transform="translate(17.635 7.473)"/>
  <path id="Trazado_56" data-name="Trazado 56" d="M34,8.695A2.695,2.695,0,1,0,36.695,6,2.695,2.695,0,0,0,34,8.695Z" transform="translate(54.917 7.473)"/>
  <path id="Trazado_57" data-name="Trazado 57" d="M16.695,6.389A2.695,2.695,0,1,0,14,3.695,2.695,2.695,0,0,0,16.695,6.389Z" transform="translate(21.024 -1)"/>
  <path id="Trazado_58" data-name="Trazado 58" d="M31.695,10.389A2.695,2.695,0,1,0,29,7.695,2.695,2.695,0,0,0,31.695,10.389Z" transform="translate(46.444 5.779)"/>
  <path id="Trazado_59" data-name="Trazado 59" d="M35.695,6.389A2.695,2.695,0,1,0,33,3.695,2.695,2.695,0,0,0,35.695,6.389Z" transform="translate(53.222 -1)"/>
</svg>
