<?xml version="1.0" standalone="no"?>
<!DOCTYPE svg PUBLIC "-//W3C//DTD SVG 20010904//EN"
 "http://www.w3.org/TR/2001/REC-SVG-20010904/DTD/svg10.dtd">
<svg version="1.0" xmlns="http://www.w3.org/2000/svg"
 width="225.000000pt" height="225.000000pt" viewBox="0 0 225.000000 225.000000"
 preserveAspectRatio="xMidYMid meet">

<g transform="translate(0.000000,225.000000) scale(0.100000,-0.100000)"
fill="#000000" stroke="none">
<path d="M479 2040 c-47 -25 -87 -72 -94 -113 -3 -18 -5 -390 -3 -828 l3 -796
28 -36 c16 -21 46 -46 67 -57 38 -19 60 -20 645 -20 585 0 607 1 645 20 21 11
51 36 67 57 l28 36 3 601 2 600 -277 278 -278 278 -400 0 c-375 -1 -402 -2
-436 -20z m1251 -632 c0 -5 -115 -8 -255 -8 l-255 0 0 262 0 263 255 -255
c140 -140 255 -258 255 -262z m-552 -349 l48 -114 54 -7 c30 -4 92 -11 137
-15 l82 -8 -100 -84 c-54 -46 -99 -91 -99 -98 0 -13 42 -187 57 -237 6 -20 -2
-17 -177 82 l-55 31 -115 -69 c-62 -38 -115 -68 -116 -67 -2 1 10 54 26 117
16 63 30 122 30 131 0 8 -45 54 -101 102 -55 48 -94 87 -87 87 67 1 253 21
259 27 4 4 29 61 55 126 26 64 49 116 50 114 2 -2 25 -55 52 -118z"/>
</g>
</svg>
