<svg id="Globe" xmlns="http://www.w3.org/2000/svg" width="99.703" height="123.963" viewBox="0 0 99.703 123.963">
  <path id="Trazado_145" data-name="Trazado 145" d="M52.725,43H25.779A10.779,10.779,0,0,0,15,53.779H63.5A10.779,10.779,0,0,0,52.725,43Z" transform="translate(9.249 70.184)"/>
  <path id="Trazado_146" data-name="Trazado 146" d="M13.384,31.186h8.084A6.737,6.737,0,0,1,28.2,37.922c0,4.958-.431,6.737,1.347,6.737,14.093,0,14.821.485,14.821-1.347s.458-4.042-1.347-4.042a6.737,6.737,0,0,1-6.737-6.737V22.078c0-.728.3-.243-6.117-6.656-.539-.593.485-.4-16.788-.4a1.347,1.347,0,0,0-1.347,1.347C12.037,30.458,11.552,31.186,13.384,31.186Z" transform="translate(4.129 22.716)"/>
  <path id="Trazado_147" data-name="Trazado 147" d="M89.128,2.743a2.695,2.695,0,0,0-3.826,0l-7.6,7.68c-.3.323,0-.216-4.338-3.207v9.943a9.431,9.431,0,0,1-9.431,9.431H58.544a9.431,9.431,0,0,1-9.431-8.084H45.071A9.431,9.431,0,0,1,35.64,9.076V1.8A43.114,43.114,0,0,0,16.777,71.268h0C8.558,79.486,8.4,79.352,8.4,80.78a2.7,2.7,0,0,0,.781,1.913A55.968,55.968,0,0,0,52.912,99.076l-5.6,8.353H61.7l-5.713-8.542C102.79,93.175,122.326,35.968,89.128,2.743ZM16.777,38.717a6.737,6.737,0,0,1,6.737-6.737c21.369,0,16.922-1.725,26.327,7.68,2.695,2.695,1.967,4.985,1.967,15.225a1.347,1.347,0,0,0,1.347,1.347,6.737,6.737,0,0,1,6.737,6.737v2.695A6.737,6.737,0,0,1,53.155,72.4H39.681a6.737,6.737,0,0,1-6.737-6.737c0-4.985.431-6.737-1.347-6.737H23.514a6.737,6.737,0,0,1-6.737-6.737Zm32.336,55.24a50.74,50.74,0,0,1-34.2-13.177A73,73,0,0,0,20.6,75.094,43.114,43.114,0,0,0,75.2,77.169C63.691,68.6,64.93,69.085,67.544,50.923a10.967,10.967,0,0,1,7.491-8.946c.943-.323-2.695-5.686,1.293-11.56,3.126-4.527,7.141-4.635,12.018-5.389-3.611-7.9-7.222-10.347-6.817-10.779l5.6-5.6C116.479,41.223,93.574,93.957,49.113,93.957Z" transform="translate(-6.001 0.365)"/>
  <path id="Trazado_148" data-name="Trazado 148" d="M23.042,14.479h5.389a4.042,4.042,0,0,1,4.042,4.042,4.042,4.042,0,0,0,4.042,4.042H41.9a4.042,4.042,0,0,0,4.042-4.042V5.344A43.114,43.114,0,0,0,19,1.76v8.677A4.042,4.042,0,0,0,23.042,14.479Z" transform="translate(16.028 -0.997)"/>
  <path id="Trazado_149" data-name="Trazado 149" d="M49.38,12.28l-5.793.97a5.659,5.659,0,0,0-4.608,6.71,19.859,19.859,0,0,1,.674,3.907,5.767,5.767,0,0,1-3.88,5.389,5.632,5.632,0,0,0-3.826,4.581L30.221,45.882a5.659,5.659,0,0,0,2.21,5.389l5.982,4.473A43.114,43.114,0,0,0,49.38,12.28Z" transform="translate(34.933 18.125)"/>
</svg>
