<svg xmlns="http://www.w3.org/2000/svg" width="76.243" height="42.767" viewBox="0 0 76.243 42.767">
  <g id="Grupo_1288" data-name="Grupo 1288" transform="translate(0)">
    <g id="Grupo_1066" data-name="Grupo 1066" transform="translate(0 0)">
      <path id="Trazado_1561" data-name="Trazado 1561" d="M-280.047-3777.354H-203.8l-2.475-3.138v-15.52l2.475-3.174h-24.637v-2.352h-27.136v2.352h-24.47l1.743,3.174v15.52Z" transform="translate(280.047 3819.102)" fill="#fff"/>
      <path id="Rectángulo_684" data-name="Rectángulo 684" d="M3,0H4.74a3,3,0,0,1,3,3v7.32a0,0,0,0,1,0,0H0a0,0,0,0,1,0,0V3A3,3,0,0,1,3,0Z" transform="translate(33.966 32.448)" fill="#145388"/>
      <rect id="Rectángulo_685" data-name="Rectángulo 685" width="7.74" height="7.74" transform="translate(33.966 20.745)" fill="#145388"/>
      <rect id="Rectángulo_690" data-name="Rectángulo 690" width="6.45" height="6.45" transform="translate(4.515 23.336)" fill="#145388"/>
      <rect id="Rectángulo_686" data-name="Rectángulo 686" width="6.45" height="6.45" transform="translate(56.243 23.336)" fill="#145388"/>
      <rect id="Rectángulo_691" data-name="Rectángulo 691" width="6.45" height="6.45" transform="translate(12.979 23.336)" fill="#145388"/>
      <rect id="Rectángulo_687" data-name="Rectángulo 687" width="6.45" height="6.45" transform="translate(64.682 23.336)" fill="#145388"/>
      <rect id="Rectángulo_692" data-name="Rectángulo 692" width="6.45" height="6.45" transform="translate(4.515 32.448)" fill="#145388"/>
      <rect id="Rectángulo_688" data-name="Rectángulo 688" width="6.45" height="6.45" transform="translate(56.243 32.448)" fill="#145388"/>
      <rect id="Rectángulo_693" data-name="Rectángulo 693" width="6.45" height="6.45" transform="translate(12.979 32.448)" fill="#145388"/>
      <rect id="Rectángulo_689" data-name="Rectángulo 689" width="6.45" height="6.45" transform="translate(64.682 32.448)" fill="#145388"/>
      <path id="Trazado_1560" data-name="Trazado 1560" d="M-245.287-3810.574l-16.52,8.049h33.374Z" transform="translate(283.119 3818.909)" fill="#fff"/>
      <rect id="Rectángulo_683" data-name="Rectángulo 683" width="10.32" height="7.74" transform="translate(37.609)" fill="#fff"/>
      <path id="Trazado_1562" data-name="Trazado 1562" d="M-106-3777.337V-3801.6" transform="translate(151.278 3819.085)" fill="#145388" stroke="#145388" stroke-width="1"/>
      <path id="Trazado_1563" data-name="Trazado 1563" d="M-106-3777.337V-3801.6" transform="translate(136.392 3819.085)" fill="#145388" stroke="#145388" stroke-width="1"/>
    </g>
  </g>
</svg>
