<svg width="453" height="298" viewBox="0 0 453 298" fill="none" xmlns="http://www.w3.org/2000/svg">
<path d="M410.85 104.37H437.33V93.18H410.85V104.37Z" fill="#EBEBEB"/>
<path d="M425.62 90.26H452.1V79.07H425.62V90.26Z" fill="#EBEBEB"/>
<path d="M396.07 90.26H422.55V79.07H396.07V90.26Z" fill="#EBEBEB"/>
<path d="M14.77 248.69H41.25V237.5H14.77V248.69Z" fill="#EBEBEB"/>
<path d="M-3.8147e-06 234.58H26.48V223.39H-3.8147e-06V234.58Z" fill="#EBEBEB"/>
<path d="M425.62 248.68H452.1V237.49H425.62V248.68Z" fill="#EBEBEB"/>
<path d="M114.96 0H88.48V11.19H114.96V0Z" fill="#EBEBEB"/>
<path d="M100.18 14.11H73.7V25.3H100.18V14.11Z" fill="#EBEBEB"/>
<path d="M149.45 144.62C149.195 144.326 148.921 144.049 148.63 143.79C148.368 143.502 148.091 143.228 147.8 142.97C147.8 142.97 147.8 142.97 147.8 142.97C147.542 142.679 147.268 142.402 146.98 142.14V142.14C146.721 141.849 146.444 141.575 146.15 141.32V141.32C145.89 141.03 145.61 140.75 145.33 140.49C145.077 140.197 144.803 139.923 144.51 139.67C144.249 139.379 143.971 139.101 143.68 138.84V138.84C143.427 138.547 143.153 138.273 142.86 138.02C142.598 137.732 142.321 137.458 142.03 137.2C142.03 137.2 142.03 137.2 142.03 137.2C141.184 136.267 140.195 135.474 139.1 134.85V52.21C139.1 51.77 138.89 51.55 138.89 51.11C138.944 50.6612 138.868 50.2064 138.67 49.8C138.67 49.58 138.46 49.14 138.46 48.92C138.34 48.4704 138.189 48.0294 138.01 47.6C137.779 47.3584 137.628 47.0508 137.58 46.72C137.328 46.325 137.033 45.9594 136.7 45.63C136.47 45.41 136.26 44.98 136.04 44.75L135.16 43.87C135.16 43.74 134.99 43.6 134.8 43.52L134.37 43.08H134.32C134.32 42.94 134.16 42.81 133.97 42.72L133.53 42.29C133.53 42.16 133.36 42.02 133.17 41.93L132.74 41.5C132.74 41.36 132.57 41.23 132.38 41.14L131.95 40.7C131.95 40.57 131.78 40.43 131.59 40.34L131.15 39.91V39.86C131.15 39.73 130.98 39.6 130.79 39.51L130.36 39.07H130.31C130.31 38.94 130.15 38.8 129.96 38.71L129.52 38.28V38.23C129.52 38.1 129.35 37.97 129.16 37.88L128.73 37.44H128.68C128.68 37.3 128.52 37.17 128.33 37.08L127.89 36.65C127.89 36.52 127.72 36.38 127.53 36.3L127.05 35.82C127.05 35.6 126.62 35.38 126.39 35.38C126.391 35.3516 126.387 35.3232 126.377 35.2965C126.367 35.2699 126.352 35.2455 126.332 35.225C126.313 35.2044 126.289 35.188 126.263 35.1769C126.237 35.1657 126.208 35.1599 126.18 35.16C125.74 34.95 125.51 34.72 125.08 34.5C124.702 34.2256 124.338 33.9319 123.99 33.62C123.77 33.62 123.33 33.41 123.11 33.41C122.67 33.19 122.01 33.19 121.79 32.96C121.411 32.9908 121.031 32.9182 120.69 32.75H116.97C116.709 32.9176 116.399 32.9916 116.09 32.96C115.43 33.19 115 33.19 114.77 33.41C114.34 33.41 114.12 33.62 113.89 34.07C113.42 34.0809 112.965 34.2305 112.58 34.5C112.37 34.72 111.92 34.95 111.7 35.16C111.408 35.4804 111.029 35.7096 110.61 35.82C110.446 36.1515 110.222 36.4498 109.95 36.7C109.73 36.92 109.73 37.13 109.52 37.13L28.05 137.74C26.1235 140.053 25.1619 143.02 25.3648 146.023C25.5678 149.027 26.9198 151.837 29.14 153.87C29.397 154.172 29.6779 154.453 29.98 154.71C30.2311 155.011 30.5089 155.289 30.81 155.54C31.067 155.842 31.3479 156.123 31.65 156.38C31.9036 156.682 32.1811 156.963 32.48 157.22C32.7372 157.519 33.0181 157.796 33.32 158.05C33.5736 158.352 33.8511 158.633 34.15 158.89C34.4072 159.189 34.6881 159.466 34.99 159.72C35.2436 160.022 35.5211 160.303 35.82 160.56C36.0772 160.859 36.3581 161.136 36.66 161.39C37.1771 161.978 37.7535 162.511 38.38 162.98C40.4395 164.77 43.1029 165.711 45.83 165.61H106.55V173.92C106.532 175.612 106.872 177.288 107.548 178.839C108.223 180.39 109.219 181.781 110.47 182.92V182.92C110.73 183.2 111 183.47 111.27 183.72C111.525 184.005 111.795 184.275 112.08 184.53V184.53C112.34 184.81 112.61 185.08 112.89 185.33C113.145 185.615 113.415 185.885 113.7 186.14V186.14C113.96 186.42 114.23 186.69 114.51 186.95C114.762 187.237 115.033 187.508 115.32 187.76V187.76C115.57 188.04 115.84 188.31 116.12 188.57C116.375 188.855 116.645 189.125 116.93 189.38V189.38C117.18 189.65 117.45 189.92 117.73 190.18C119.382 191.966 121.533 193.213 123.904 193.758C126.274 194.304 128.754 194.123 131.02 193.239C133.286 192.355 135.234 190.81 136.609 188.803C137.984 186.797 138.723 184.422 138.73 181.99V165.57H140.93C142.531 165.596 144.121 165.304 145.608 164.71C147.095 164.116 148.449 163.232 149.591 162.11C150.733 160.987 151.64 159.649 152.26 158.173C152.879 156.696 153.199 155.111 153.2 153.51C153.224 151.849 152.903 150.202 152.258 148.671C151.612 147.141 150.656 145.762 149.45 144.62V144.62ZM106.53 97.62V133.06H77.97L106.53 97.62Z" fill="#F15C21"/>
<path opacity="0.1" d="M149.45 144.62C149.195 144.326 148.921 144.049 148.63 143.79C148.368 143.502 148.091 143.228 147.8 142.97C147.8 142.97 147.8 142.97 147.8 142.97C147.542 142.679 147.268 142.402 146.98 142.14V142.14C146.721 141.849 146.444 141.575 146.15 141.32V141.32C145.89 141.03 145.61 140.75 145.33 140.49C145.077 140.197 144.803 139.923 144.51 139.67C144.249 139.379 143.971 139.101 143.68 138.84V138.84C143.427 138.547 143.153 138.273 142.86 138.02C142.598 137.732 142.321 137.458 142.03 137.2C142.03 137.2 142.03 137.2 142.03 137.2C141.184 136.267 140.195 135.474 139.1 134.85V52.21C139.1 51.77 138.89 51.55 138.89 51.11C138.944 50.6612 138.868 50.2064 138.67 49.8C138.67 49.58 138.46 49.14 138.46 48.92C138.34 48.4704 138.189 48.0294 138.01 47.6C137.779 47.3584 137.628 47.0508 137.58 46.72C137.328 46.325 137.033 45.9594 136.7 45.63C136.47 45.41 136.26 44.98 136.04 44.75L135.16 43.87C135.16 43.74 134.99 43.6 134.8 43.52L134.37 43.08H134.32C134.32 42.94 134.16 42.81 133.97 42.72L133.53 42.29C133.53 42.16 133.36 42.02 133.17 41.93L132.74 41.5C132.74 41.36 132.57 41.23 132.38 41.14L131.95 40.7C131.95 40.57 131.78 40.43 131.59 40.34L131.15 39.91V39.86C131.15 39.73 130.98 39.6 130.79 39.51L130.36 39.07H130.31C130.31 38.94 130.15 38.8 129.96 38.71L129.52 38.28V38.23C129.52 38.1 129.35 37.97 129.16 37.88L128.73 37.44H128.68C128.68 37.3 128.52 37.17 128.33 37.08L127.89 36.65C127.89 36.52 127.72 36.38 127.53 36.3L127.05 35.82C127.05 35.6 126.62 35.38 126.39 35.38C126.391 35.3516 126.387 35.3232 126.377 35.2965C126.367 35.2699 126.352 35.2455 126.332 35.225C126.313 35.2044 126.289 35.188 126.263 35.1769C126.237 35.1657 126.208 35.1599 126.18 35.16C125.74 34.95 125.51 34.72 125.08 34.5C124.702 34.2256 124.338 33.9319 123.99 33.62C123.77 33.62 123.33 33.41 123.11 33.41C122.67 33.19 122.01 33.19 121.79 32.96C121.411 32.9908 121.031 32.9182 120.69 32.75H116.97C116.709 32.9176 116.399 32.9916 116.09 32.96C115.43 33.19 115 33.19 114.77 33.41C114.34 33.41 114.12 33.62 113.89 34.07C113.42 34.0809 112.965 34.2305 112.58 34.5C112.37 34.72 111.92 34.95 111.7 35.16C111.408 35.4804 111.029 35.7096 110.61 35.82C110.446 36.1515 110.222 36.4498 109.95 36.7C109.73 36.92 109.73 37.13 109.52 37.13L28.05 137.74C26.1235 140.053 25.1619 143.02 25.3648 146.023C25.5678 149.027 26.9198 151.837 29.14 153.87C29.397 154.172 29.6779 154.453 29.98 154.71C30.2311 155.011 30.5089 155.289 30.81 155.54C31.067 155.842 31.3479 156.123 31.65 156.38C31.9036 156.682 32.1811 156.963 32.48 157.22C32.7372 157.519 33.0181 157.796 33.32 158.05C33.5736 158.352 33.8511 158.633 34.15 158.89C34.4072 159.189 34.6881 159.466 34.99 159.72C35.2436 160.022 35.5211 160.303 35.82 160.56C36.0772 160.859 36.3581 161.136 36.66 161.39C37.1771 161.978 37.7535 162.511 38.38 162.98C40.4395 164.77 43.1029 165.711 45.83 165.61H106.55V173.92C106.532 175.612 106.872 177.288 107.548 178.839C108.223 180.39 109.219 181.781 110.47 182.92V182.92C110.73 183.2 111 183.47 111.27 183.72C111.525 184.005 111.795 184.275 112.08 184.53V184.53C112.34 184.81 112.61 185.08 112.89 185.33C113.145 185.615 113.415 185.885 113.7 186.14V186.14C113.96 186.42 114.23 186.69 114.51 186.95C114.762 187.237 115.033 187.508 115.32 187.76V187.76C115.57 188.04 115.84 188.31 116.12 188.57C116.375 188.855 116.645 189.125 116.93 189.38V189.38C117.18 189.65 117.45 189.92 117.73 190.18C119.382 191.966 121.533 193.213 123.904 193.758C126.274 194.304 128.754 194.123 131.02 193.239C133.286 192.355 135.234 190.81 136.609 188.803C137.984 186.797 138.723 184.422 138.73 181.99V165.57H140.93C142.531 165.596 144.121 165.304 145.608 164.71C147.095 164.116 148.449 163.232 149.591 162.11C150.733 160.987 151.64 159.649 152.26 158.173C152.879 156.696 153.199 155.111 153.2 153.51C153.224 151.849 152.903 150.202 152.258 148.671C151.612 147.141 150.656 145.762 149.45 144.62V144.62ZM106.53 97.62V133.06H77.97L106.53 97.62Z" fill="black"/>
<path d="M145.11 145.15C145.109 146.752 144.789 148.338 144.169 149.815C143.548 151.292 142.64 152.631 141.497 153.753C140.354 154.876 138.999 155.76 137.511 156.353C136.023 156.947 134.432 157.238 132.83 157.21H130.64V173.88C130.64 177.079 129.369 180.146 127.108 182.408C124.846 184.669 121.779 185.94 118.58 185.94C115.381 185.94 112.314 184.669 110.052 182.408C107.791 180.146 106.52 177.079 106.52 173.88V157.21H37.45C34.7393 157.302 32.0947 156.362 30.05 154.58C28.7832 153.628 27.7225 152.428 26.932 151.055C26.1415 149.681 25.6376 148.161 25.4506 146.587C25.2637 145.014 25.3977 143.418 25.8444 141.898C26.2912 140.377 27.0415 138.963 28.05 137.74L109.15 36.83C109.37 36.83 109.37 36.62 109.59 36.4C109.862 36.1498 110.086 35.8515 110.25 35.52C110.671 35.4063 111.052 35.1777 111.35 34.86C111.56 34.64 112 34.42 112.22 34.2C112.606 33.924 113.066 33.7707 113.54 33.76C113.76 33.33 113.98 33.11 114.42 33.11C114.63 32.89 115.07 32.89 115.73 32.67C116.04 32.7029 116.352 32.625 116.61 32.45H120.34C120.674 32.6287 121.053 32.7052 121.43 32.67C121.65 32.89 122.31 32.89 122.75 33.11C122.97 33.11 123.41 33.33 123.63 33.33C124.06 33.76 124.5 33.98 124.72 34.2C125.16 34.42 125.38 34.64 125.82 34.86C125.878 34.86 125.934 34.8832 125.976 34.9244C126.017 34.9657 126.04 35.0216 126.04 35.08C126.26 35.08 126.7 35.3 126.7 35.52L127.57 36.4C127.79 36.62 128.01 37.05 128.23 37.27C128.566 37.6008 128.861 37.97 129.11 38.37C129.165 38.7008 129.318 39.0075 129.55 39.25C129.731 39.6735 129.875 40.1118 129.98 40.56C129.98 40.78 130.2 41.22 130.2 41.44C130.398 41.8499 130.474 42.308 130.42 42.76C130.42 43.19 130.64 43.41 130.64 43.85V133.09H132.83C136.054 133.074 139.153 134.332 141.453 136.591C143.754 138.85 145.068 141.926 145.11 145.15ZM106.52 78.93L62.89 133.09H106.52V78.93Z" fill="#F15C21"/>
<path d="M273.38 65.14C270.905 61.3731 268.028 57.886 264.8 54.74C264.681 54.6091 264.554 54.4856 264.42 54.37L264.31 54.26C264.21 54.15 264.11 54.04 264 53.94C263.72 53.64 263.42 53.36 263.13 53.07L263.05 53L262.75 52.7C262.716 52.6609 262.679 52.6241 262.64 52.59C262.54 52.48 262.44 52.37 262.33 52.27C262.05 51.97 261.75 51.69 261.46 51.4L261.38 51.33L261.08 51.03L260.97 50.92C260.87 50.81 260.77 50.7 260.66 50.6C260.38 50.3 260.08 50.02 259.79 49.73L259.71 49.66L259.41 49.36C259.41 49.36 259.34 49.28 259.3 49.25C259.201 49.1359 259.094 49.029 258.98 48.93C258.71 48.62 258.41 48.35 258.12 48.06L258.04 47.99C257.948 47.8826 257.847 47.7823 257.74 47.69C257.74 47.69 257.67 47.61 257.63 47.58C248.82 38.5 237.34 32.49 224.46 32.49C207.13 32.49 192.89 42.8 183.67 56.82C174.02 70.82 168.99 89.07 168.77 109.23C168.99 129.23 174.02 147.6 183.67 161.64C186.141 165.351 188.986 168.799 192.16 171.93L192.6 172.36V172.41L193.38 173.19C193.51 173.34 193.65 173.47 193.78 173.6L194.22 174.03L194.27 174.08L195.05 174.86L195.45 175.28L195.89 175.7C195.911 175.711 195.929 175.729 195.94 175.75L196.72 176.53L197.12 176.95L197.56 177.37C197.572 177.376 197.583 177.385 197.591 177.395C197.6 177.405 197.606 177.417 197.61 177.43L198.39 178.21L198.8 178.62L199.23 179.04L199.29 179.1L200.07 179.88C208.73 188.53 219.91 194.34 232.76 194.34C249.64 194.34 264.11 183.81 273.33 169.99C282.75 155.99 288.02 137.54 288.02 117.59C288.05 97.38 282.8 79.18 273.38 65.14ZM244.85 148.01C238.49 157.43 231.25 161.6 224.46 161.6C220.282 161.499 216.239 160.101 212.89 157.6C212.58 157.2 212.28 156.78 211.98 156.34C205.84 147.13 201.45 133.1 201.45 117.53C201.45 101.74 205.84 87.93 211.98 78.53C218.57 69.32 225.98 64.94 232.81 65.15C236.769 65.1319 240.628 66.3948 243.81 68.75C244.16 69.22 244.5 69.68 244.81 70.17C250.95 79.6 255.33 93.41 255.33 109.17C255.37 124.74 250.99 138.79 244.85 148.01Z" fill="#F15C21"/>
<path opacity="0.1" d="M273.38 65.14C270.905 61.3731 268.028 57.886 264.8 54.74C264.681 54.6091 264.554 54.4856 264.42 54.37L264.31 54.26C264.21 54.15 264.11 54.04 264 53.94C263.72 53.64 263.42 53.36 263.13 53.07L263.05 53L262.75 52.7C262.716 52.6609 262.679 52.6241 262.64 52.59C262.54 52.48 262.44 52.37 262.33 52.27C262.05 51.97 261.75 51.69 261.46 51.4L261.38 51.33L261.08 51.03L260.97 50.92C260.87 50.81 260.77 50.7 260.66 50.6C260.38 50.3 260.08 50.02 259.79 49.73L259.71 49.66L259.41 49.36C259.41 49.36 259.34 49.28 259.3 49.25C259.201 49.1359 259.094 49.029 258.98 48.93C258.71 48.62 258.41 48.35 258.12 48.06L258.04 47.99C257.948 47.8826 257.847 47.7823 257.74 47.69C257.74 47.69 257.67 47.61 257.63 47.58C248.82 38.5 237.34 32.49 224.46 32.49C207.13 32.49 192.89 42.8 183.67 56.82C174.02 70.82 168.99 89.07 168.77 109.23C168.99 129.23 174.02 147.6 183.67 161.64C186.141 165.351 188.986 168.799 192.16 171.93L192.6 172.36V172.41L193.38 173.19C193.51 173.34 193.65 173.47 193.78 173.6L194.22 174.03L194.27 174.08L195.05 174.86L195.45 175.28L195.89 175.7C195.911 175.711 195.929 175.729 195.94 175.75L196.72 176.53L197.12 176.95L197.56 177.37C197.572 177.376 197.583 177.385 197.591 177.395C197.6 177.405 197.606 177.417 197.61 177.43L198.39 178.21L198.8 178.62L199.23 179.04L199.29 179.1L200.07 179.88C208.73 188.53 219.91 194.34 232.76 194.34C249.64 194.34 264.11 183.81 273.33 169.99C282.75 155.99 288.02 137.54 288.02 117.59C288.05 97.38 282.8 79.18 273.38 65.14ZM244.85 148.01C238.49 157.43 231.25 161.6 224.46 161.6C220.282 161.499 216.239 160.101 212.89 157.6C212.58 157.2 212.28 156.78 211.98 156.34C205.84 147.13 201.45 133.1 201.45 117.53C201.45 101.74 205.84 87.93 211.98 78.53C218.57 69.32 225.98 64.94 232.81 65.15C236.769 65.1319 240.628 66.3948 243.81 68.75C244.16 69.22 244.5 69.68 244.81 70.17C250.95 79.6 255.33 93.41 255.33 109.17C255.37 124.74 250.99 138.79 244.85 148.01Z" fill="black"/>
<path d="M168.76 109.19C168.98 89.02 174.03 70.82 183.67 56.79C192.88 42.79 207.13 32.45 224.46 32.45C241.34 32.45 255.81 42.76 265.02 56.79C274.45 70.79 279.71 89.02 279.71 109.19C279.71 129.19 274.45 147.57 265.02 161.6C255.81 175.41 241.34 185.94 224.46 185.94C207.13 185.94 192.88 175.41 183.67 161.6C174.05 147.57 168.98 129.15 168.76 109.19ZM255.37 109.19C255.37 93.41 250.99 79.59 244.85 70.19C238.49 60.98 231.26 56.6 224.46 56.82C217.66 56.6 210.2 60.98 203.63 70.19C197.49 79.62 193.1 93.44 193.1 109.19C193.1 124.76 197.49 138.8 203.63 148C210.2 157.43 217.63 161.6 224.46 161.6C231.29 161.6 238.46 157.43 244.85 148C250.99 138.8 255.37 124.74 255.37 109.19Z" fill="#F15C21"/>
<path d="M422.76 144.62C422.5 144.33 422.22 144.05 421.94 143.79C421.67 143.5 421.39 143.23 421.11 142.97C420.84 142.68 420.57 142.4 420.29 142.14C420.02 141.85 419.74 141.57 419.46 141.32C419.19 141.03 418.92 140.75 418.64 140.49C418.37 140.2 418.09 139.92 417.81 139.67C417.54 139.38 417.26 139.1 416.99 138.84C416.732 138.552 416.458 138.278 416.17 138.02C416.17 138.02 416.17 138.02 416.17 138.02C415.9 137.73 415.62 137.46 415.34 137.2C414.493 136.264 413.5 135.47 412.4 134.85V52.21C412.4 51.77 412.19 51.55 412.19 51.11C412.244 50.6612 412.168 50.2064 411.97 49.8C411.97 49.58 411.76 49.14 411.76 48.92C411.64 48.4704 411.489 48.0294 411.31 47.6C411.083 47.3555 410.933 47.0493 410.88 46.72C410.632 46.3226 410.336 45.9566 410 45.63C409.77 45.41 409.56 44.98 409.34 44.75L408.46 43.87C408.46 43.74 408.29 43.6 408.1 43.52L407.67 43.08H407.62C407.62 42.94 407.46 42.81 407.27 42.72L406.83 42.29C406.83 42.16 406.66 42.02 406.47 41.93L406.04 41.5C406.04 41.36 405.87 41.23 405.68 41.14L405.25 40.7C405.25 40.57 405.08 40.43 404.89 40.34L404.45 39.91V39.86C404.45 39.73 404.28 39.6 404.09 39.51L403.66 39.07H403.61C403.61 38.94 403.45 38.8 403.26 38.71L402.82 38.28V38.23C402.82 38.1 402.65 37.97 402.46 37.88L402.03 37.44H401.98C401.98 37.3 401.82 37.17 401.63 37.08L401.19 36.65C401.19 36.52 401.02 36.38 400.83 36.3L400.35 35.82C400.35 35.6 399.92 35.38 399.69 35.38C399.69 35.3511 399.684 35.3225 399.673 35.2958C399.662 35.2691 399.646 35.2448 399.626 35.2244C399.605 35.204 399.581 35.1878 399.554 35.1767C399.527 35.1657 399.499 35.16 399.47 35.16C399.04 34.95 398.81 34.72 398.38 34.5C398.002 34.2256 397.638 33.9319 397.29 33.62C397.07 33.62 396.63 33.41 396.41 33.41C395.97 33.19 395.32 33.19 395.09 32.96C394.711 32.9919 394.331 32.9192 393.99 32.75H390.27C390.009 32.9176 389.699 32.9916 389.39 32.96C388.73 33.19 388.3 33.19 388.07 33.41C387.64 33.41 387.42 33.62 387.19 34.07C386.721 34.0821 386.265 34.2316 385.88 34.5C385.67 34.72 385.22 34.95 385.01 35.16C384.712 35.4777 384.331 35.7062 383.91 35.82C383.743 36.1494 383.519 36.4472 383.25 36.7C383.03 36.92 383.03 37.13 382.82 37.13L301.33 137.74C299.403 140.053 298.442 143.02 298.645 146.023C298.848 149.027 300.2 151.837 302.42 153.87C302.677 154.172 302.958 154.453 303.26 154.71C303.511 155.011 303.789 155.289 304.09 155.54C304.347 155.842 304.628 156.123 304.93 156.38C305.768 157.212 306.602 158.048 307.43 158.89C307.993 159.44 308.55 159.997 309.1 160.56C309.357 160.859 309.638 161.136 309.94 161.39C310.457 161.978 311.033 162.511 311.66 162.98C313.719 164.77 316.383 165.711 319.11 165.61H379.83V173.92C379.812 175.612 380.152 177.288 380.828 178.839C381.503 180.39 382.499 181.781 383.75 182.92C383.75 182.92 383.75 182.92 383.75 182.92C384.01 183.21 384.29 183.48 384.56 183.73C384.81 184.01 385.08 184.27 385.36 184.53C385.618 184.815 385.892 185.085 386.18 185.34V185.34C386.44 185.62 386.7 185.88 386.98 186.14C387.24 186.43 387.52 186.7 387.8 186.96C388.06 187.24 388.32 187.51 388.6 187.76C388.86 188.05 389.14 188.32 389.42 188.58C389.68 188.86 389.94 189.13 390.22 189.38C390.475 189.668 390.745 189.942 391.03 190.2C392.682 191.986 394.834 193.233 397.206 193.779C399.577 194.324 402.058 194.142 404.325 193.257C406.591 192.372 408.539 190.825 409.913 188.817C411.288 186.809 412.025 184.433 412.03 182V165.57H414.23C415.832 165.598 417.424 165.307 418.913 164.713C420.401 164.12 421.757 163.236 422.901 162.114C424.045 160.992 424.954 159.653 425.575 158.176C426.196 156.698 426.518 155.112 426.52 153.51C426.543 151.849 426.22 150.201 425.573 148.67C424.926 147.14 423.968 145.761 422.76 144.62V144.62ZM379.83 97.62V133.06H351.27L379.83 97.62Z" fill="#F15C21"/>
<path opacity="0.1" d="M422.76 144.62C422.5 144.33 422.22 144.05 421.94 143.79C421.67 143.5 421.39 143.23 421.11 142.97C420.84 142.68 420.57 142.4 420.29 142.14C420.02 141.85 419.74 141.57 419.46 141.32C419.19 141.03 418.92 140.75 418.64 140.49C418.37 140.2 418.09 139.92 417.81 139.67C417.54 139.38 417.26 139.1 416.99 138.84C416.732 138.552 416.458 138.278 416.17 138.02C416.17 138.02 416.17 138.02 416.17 138.02C415.9 137.73 415.62 137.46 415.34 137.2C414.493 136.264 413.5 135.47 412.4 134.85V52.21C412.4 51.77 412.19 51.55 412.19 51.11C412.244 50.6612 412.168 50.2064 411.97 49.8C411.97 49.58 411.76 49.14 411.76 48.92C411.64 48.4704 411.489 48.0294 411.31 47.6C411.083 47.3555 410.933 47.0493 410.88 46.72C410.632 46.3226 410.336 45.9566 410 45.63C409.77 45.41 409.56 44.98 409.34 44.75L408.46 43.87C408.46 43.74 408.29 43.6 408.1 43.52L407.67 43.08H407.62C407.62 42.94 407.46 42.81 407.27 42.72L406.83 42.29C406.83 42.16 406.66 42.02 406.47 41.93L406.04 41.5C406.04 41.36 405.87 41.23 405.68 41.14L405.25 40.7C405.25 40.57 405.08 40.43 404.89 40.34L404.45 39.91V39.86C404.45 39.73 404.28 39.6 404.09 39.51L403.66 39.07H403.61C403.61 38.94 403.45 38.8 403.26 38.71L402.82 38.28V38.23C402.82 38.1 402.65 37.97 402.46 37.88L402.03 37.44H401.98C401.98 37.3 401.82 37.17 401.63 37.08L401.19 36.65C401.19 36.52 401.02 36.38 400.83 36.3L400.35 35.82C400.35 35.6 399.92 35.38 399.69 35.38C399.69 35.3511 399.684 35.3225 399.673 35.2958C399.662 35.2691 399.646 35.2448 399.626 35.2244C399.605 35.204 399.581 35.1878 399.554 35.1767C399.527 35.1657 399.499 35.16 399.47 35.16C399.04 34.95 398.81 34.72 398.38 34.5C398.002 34.2256 397.638 33.9319 397.29 33.62C397.07 33.62 396.63 33.41 396.41 33.41C395.97 33.19 395.32 33.19 395.09 32.96C394.711 32.9919 394.331 32.9192 393.99 32.75H390.27C390.009 32.9176 389.699 32.9916 389.39 32.96C388.73 33.19 388.3 33.19 388.07 33.41C387.64 33.41 387.42 33.62 387.19 34.07C386.721 34.0821 386.265 34.2316 385.88 34.5C385.67 34.72 385.22 34.95 385.01 35.16C384.712 35.4777 384.331 35.7062 383.91 35.82C383.743 36.1494 383.519 36.4472 383.25 36.7C383.03 36.92 383.03 37.13 382.82 37.13L301.33 137.74C299.403 140.053 298.442 143.02 298.645 146.023C298.848 149.027 300.2 151.837 302.42 153.87C302.677 154.172 302.958 154.453 303.26 154.71C303.511 155.011 303.789 155.289 304.09 155.54C304.347 155.842 304.628 156.123 304.93 156.38C305.768 157.212 306.602 158.048 307.43 158.89C307.993 159.44 308.55 159.997 309.1 160.56C309.357 160.859 309.638 161.136 309.94 161.39C310.457 161.978 311.033 162.511 311.66 162.98C313.719 164.77 316.383 165.711 319.11 165.61H379.83V173.92C379.812 175.612 380.152 177.288 380.828 178.839C381.503 180.39 382.499 181.781 383.75 182.92C383.75 182.92 383.75 182.92 383.75 182.92C384.01 183.21 384.29 183.48 384.56 183.73C384.81 184.01 385.08 184.27 385.36 184.53C385.618 184.815 385.892 185.085 386.18 185.34V185.34C386.44 185.62 386.7 185.88 386.98 186.14C387.24 186.43 387.52 186.7 387.8 186.96C388.06 187.24 388.32 187.51 388.6 187.76C388.86 188.05 389.14 188.32 389.42 188.58C389.68 188.86 389.94 189.13 390.22 189.38C390.475 189.668 390.745 189.942 391.03 190.2C392.682 191.986 394.834 193.233 397.206 193.779C399.577 194.324 402.058 194.142 404.325 193.257C406.591 192.372 408.539 190.825 409.913 188.817C411.288 186.809 412.025 184.433 412.03 182V165.57H414.23C415.832 165.598 417.424 165.307 418.913 164.713C420.401 164.12 421.757 163.236 422.901 162.114C424.045 160.992 424.954 159.653 425.575 158.176C426.196 156.698 426.518 155.112 426.52 153.51C426.543 151.849 426.22 150.201 425.573 148.67C424.926 147.14 423.968 145.761 422.76 144.62V144.62ZM379.83 97.62V133.06H351.27L379.83 97.62Z" fill="black"/>
<path d="M418.41 145.15C418.409 146.752 418.089 148.338 417.469 149.815C416.848 151.292 415.94 152.631 414.797 153.753C413.654 154.876 412.299 155.76 410.811 156.353C409.323 156.947 407.732 157.238 406.13 157.21H403.94V173.88C403.94 177.079 402.669 180.146 400.408 182.408C398.146 184.669 395.078 185.94 391.88 185.94C388.681 185.94 385.614 184.669 383.352 182.408C381.091 180.146 379.82 177.079 379.82 173.88V157.21H310.75C308.022 157.315 305.357 156.374 303.3 154.58C302.027 153.627 300.961 152.426 300.167 151.049C299.373 149.672 298.867 148.148 298.68 146.569C298.493 144.99 298.629 143.39 299.079 141.865C299.529 140.341 300.285 138.924 301.3 137.7L382.45 36.83C382.67 36.83 382.67 36.62 382.89 36.4C383.162 36.1498 383.386 35.8515 383.55 35.52C383.971 35.4063 384.352 35.1777 384.65 34.86C384.87 34.64 385.31 34.42 385.53 34.2C385.911 33.9225 386.369 33.7689 386.84 33.76C387.06 33.33 387.28 33.11 387.71 33.11C387.93 32.89 388.37 32.89 389.03 32.67C389.34 32.7029 389.652 32.625 389.91 32.45H393.64C393.974 32.6287 394.353 32.7052 394.73 32.67C394.95 32.89 395.61 32.89 396.05 33.11C396.27 33.11 396.71 33.33 396.93 33.33C397.37 33.76 397.8 33.98 398.02 34.2C398.46 34.42 398.68 34.64 399.12 34.86C399.178 34.86 399.234 34.8832 399.276 34.9244C399.317 34.9657 399.34 35.0216 399.34 35.08C399.56 35.08 399.99 35.3 399.99 35.52L400.87 36.4C401.09 36.62 401.31 37.05 401.53 37.27C401.866 37.6008 402.161 37.97 402.41 38.37C402.465 38.7008 402.618 39.0075 402.85 39.25C403.03 39.6747 403.177 40.1127 403.29 40.56C403.29 40.78 403.5 41.22 403.5 41.44C403.698 41.8499 403.774 42.308 403.72 42.76C403.72 43.19 403.94 43.41 403.94 43.85V133.09H406.13C409.354 133.074 412.453 134.332 414.753 136.591C417.054 138.85 418.368 141.926 418.41 145.15V145.15ZM379.82 78.93L336.19 133.09H379.82V78.93Z" fill="#F15C21"/>
<path d="M388.68 35.65C388.093 41.2755 385.954 46.6272 382.502 51.1078C379.05 55.5885 374.421 59.0218 369.132 61.0246C363.842 63.0274 358.1 63.5209 352.546 62.45C346.993 61.3791 341.846 58.786 337.68 54.96L322.4 57.21L330.05 44C328.296 39.7004 327.545 35.0575 327.855 30.4241C328.165 25.7908 329.527 21.2892 331.839 17.2616C334.15 13.234 337.349 9.78652 341.193 7.18134C345.037 4.57615 349.425 2.88188 354.022 2.22736C358.62 1.57284 363.306 1.97532 367.724 3.40418C372.142 4.83303 376.177 7.25064 379.52 10.4732C382.864 13.6957 385.428 17.6382 387.019 22.0009C388.61 26.3636 389.185 31.0317 388.7 35.65H388.68Z" fill="white"/>
<path d="M388.68 35.65C388.095 41.2797 385.963 46.6375 382.52 51.13C380.829 53.3912 378.807 55.3838 376.52 57.04C371.977 60.4503 366.584 62.5466 360.93 63.1C359.521 63.2317 358.103 63.2584 356.69 63.18C355.274 63.1489 353.862 63.0017 352.47 62.74C346.839 61.7086 341.607 59.1289 337.36 55.29L337.72 55.4L322.47 57.74L321.36 57.91L321.92 56.91L329.52 43.68V44.2C327.3 38.7356 326.689 32.7501 327.76 26.9499C328.831 21.1497 331.54 15.7772 335.566 11.4664C339.591 7.1557 344.766 4.0868 350.48 2.62204C356.193 1.15729 362.207 1.35783 367.81 3.19999C372.222 4.69924 376.244 7.16608 379.58 10.42C382.909 13.661 385.459 17.6163 387.035 21.9871C388.612 26.358 389.174 31.0299 388.68 35.65V35.65ZM388.68 35.65C389.162 31.0554 388.583 26.4115 386.989 22.0756C385.394 17.7397 382.826 13.8275 379.482 10.64C376.138 7.45248 372.107 5.07463 367.7 3.68944C363.293 2.30425 358.626 1.94865 354.06 2.65C349.527 3.33262 345.21 5.04289 341.44 7.65C337.706 10.2796 334.59 13.6923 332.31 17.65C330.058 21.6085 328.731 26.0256 328.43 30.57C328.153 35.1079 328.887 39.6506 330.58 43.87L330.69 44.15L330.55 44.4L322.86 57.58L322.31 56.77L337.6 54.63H337.81L337.96 54.77C342.044 58.5874 347.11 61.1945 352.59 62.3C353.954 62.5799 355.339 62.7504 356.73 62.81C358.122 62.905 359.518 62.905 360.91 62.81C363.697 62.5927 366.44 61.9868 369.06 61.01C371.701 60.049 374.185 58.7009 376.43 57.01C377.559 56.1825 378.635 55.2841 379.65 54.32C380.64 53.3273 381.568 52.2753 382.43 51.17C385.911 46.6756 388.075 41.3025 388.68 35.65V35.65Z" fill="#263238"/>
<path d="M343.38 46.74C343.361 46.3344 343.425 45.9292 343.567 45.5489C343.709 45.1686 343.927 44.8211 344.208 44.5276C344.488 44.234 344.825 44.0004 345.199 43.841C345.572 43.6815 345.974 43.5995 346.38 43.6C347.213 43.6 348.011 43.9308 348.6 44.5197C349.189 45.1085 349.52 45.9072 349.52 46.74C349.52 47.5728 349.189 48.3714 348.6 48.9603C348.011 49.5492 347.213 49.88 346.38 49.88C345.974 49.8804 345.572 49.7985 345.199 49.639C344.825 49.4796 344.488 49.246 344.208 48.9524C343.927 48.6588 343.709 48.3114 343.567 47.9311C343.425 47.5508 343.361 47.1456 343.38 46.74ZM344.65 39.5L343.94 15.19H348.8L348.05 39.47L344.65 39.5Z" fill="#F15C21"/>
<path d="M355.05 46.74C355.031 46.3344 355.095 45.9292 355.237 45.5489C355.379 45.1686 355.597 44.8211 355.878 44.5276C356.158 44.234 356.495 44.0004 356.869 43.841C357.242 43.6815 357.644 43.5995 358.05 43.6C358.883 43.6 359.681 43.9308 360.27 44.5197C360.859 45.1085 361.19 45.9072 361.19 46.74C361.19 47.5728 360.859 48.3714 360.27 48.9603C359.681 49.5492 358.883 49.88 358.05 49.88C357.644 49.8804 357.242 49.7985 356.869 49.639C356.495 49.4796 356.158 49.246 355.878 48.9524C355.597 48.6588 355.379 48.3114 355.237 47.9311C355.095 47.5508 355.031 47.1456 355.05 46.74ZM356.32 39.5L355.61 15.19H360.47L359.76 39.5H356.32Z" fill="#F15C21"/>
<path d="M366.68 46.74C366.661 46.3344 366.725 45.9292 366.867 45.5489C367.009 45.1686 367.227 44.8211 367.508 44.5276C367.788 44.234 368.125 44.0004 368.499 43.841C368.872 43.6815 369.274 43.5995 369.68 43.6C370.513 43.6 371.311 43.9308 371.9 44.5197C372.489 45.1085 372.82 45.9072 372.82 46.74C372.82 47.5728 372.489 48.3714 371.9 48.9603C371.311 49.5492 370.513 49.88 369.68 49.88C369.274 49.8804 368.872 49.7985 368.499 49.639C368.125 49.4796 367.788 49.246 367.508 48.9524C367.227 48.6588 367.009 48.3114 366.867 47.9311C366.725 47.5508 366.661 47.1456 366.68 46.74ZM367.95 39.5L367.24 15.19H372.1L371.39 39.5H367.95Z" fill="#F15C21"/>
<path d="M295.79 213.864L287.503 219.47L304.857 245.127L313.144 239.522L295.79 213.864Z" fill="#EBEBEB"/>
<path d="M244.92 147.605C237.997 152.29 232.618 158.923 229.464 166.665C226.31 174.407 225.522 182.91 227.2 191.1C228.878 199.29 232.946 206.798 238.89 212.676C244.834 218.554 252.388 222.538 260.596 224.124C268.804 225.71 277.298 224.826 285.004 221.586C292.71 218.345 299.282 212.892 303.89 205.917C308.498 198.942 310.934 190.757 310.891 182.397C310.848 174.038 308.327 165.878 303.648 158.951C300.538 154.348 296.552 150.403 291.917 147.341C287.282 144.279 282.089 142.161 276.635 141.107C271.181 140.053 265.573 140.085 260.131 141.2C254.689 142.315 249.52 144.491 244.92 147.605V147.605ZM287.322 210.303C281.852 214.005 275.406 216.001 268.802 216.04C262.197 216.078 255.729 214.157 250.216 210.519C244.703 206.881 240.393 201.69 237.831 195.602C235.269 189.514 234.57 182.803 235.822 176.318C237.074 169.833 240.222 163.865 244.867 159.168C249.511 154.472 255.444 151.259 261.915 149.935C268.386 148.612 275.105 149.237 281.22 151.732C287.336 154.227 292.574 158.479 296.273 163.952C301.23 171.286 303.072 180.289 301.393 188.981C299.715 197.672 294.653 205.342 287.322 210.303V210.303Z" fill="#A6A6A6"/>
<g opacity="0.3">
<path d="M296.268 163.939C299.965 169.409 301.957 175.853 301.992 182.455C302.027 189.058 300.103 195.522 296.464 201.031C292.826 206.54 287.635 210.847 281.549 213.406C275.463 215.965 268.754 216.663 262.272 215.41C255.79 214.157 249.824 211.01 245.13 206.367C240.436 201.724 237.225 195.793 235.901 189.325C234.577 182.857 235.201 176.141 237.694 170.027C240.187 163.914 244.436 158.676 249.905 154.978C253.537 152.52 257.618 150.803 261.914 149.923C266.211 149.044 270.638 149.019 274.944 149.851C279.249 150.684 283.349 152.356 287.008 154.773C290.667 157.191 293.813 160.305 296.268 163.939V163.939Z" fill="white"/>
<path d="M300.403 172.429C303.092 180.811 302.363 189.916 298.376 197.763C294.388 205.611 287.465 211.568 279.11 214.339L300.403 172.429Z" fill="#EBEBEB"/>
<path d="M275.318 149.934L246.148 207.336C244.19 205.55 242.451 203.536 240.972 201.337C239.262 198.823 237.91 196.083 236.956 193.196L258.492 150.813C263.933 149.084 269.727 148.782 275.318 149.934V149.934Z" fill="#EBEBEB"/>
<path d="M294.263 161.28L266.475 215.953C264.29 215.812 262.124 215.456 260.008 214.891L289.599 156.673C291.306 158.046 292.869 159.59 294.263 161.28V161.28Z" fill="#EBEBEB"/>
<path d="M279.722 151.162L249.715 210.187C249.382 209.955 249.048 209.724 248.725 209.481L278.558 150.79C278.958 150.895 279.341 151.014 279.722 151.162Z" fill="#EBEBEB"/>
<path d="M248.541 155.954L235.228 182.137C235.238 181.134 235.3 180.132 235.409 179.142L246.231 157.84C246.967 157.191 247.737 156.557 248.541 155.954Z" fill="#EBEBEB"/>
</g>
<path d="M306.646 232.87L301.087 236.63C299.163 237.932 298.658 240.547 299.96 242.472L320.656 273.071C321.958 274.996 324.574 275.501 326.498 274.199L332.057 270.44C333.982 269.138 334.486 266.522 333.185 264.597L312.488 233.998C311.186 232.073 308.571 231.568 306.646 232.87Z" fill="#263238"/>
</svg>
